<?xml version="1.0" encoding="utf-8"?>
<!-- Generator: Adobe Illustrator 22.1.0, SVG Export Plug-In . SVG Version: 6.00 Build 0)  -->
<svg version="1.1" id="Layer_1" xmlns="http://www.w3.org/2000/svg" xmlns:xlink="http://www.w3.org/1999/xlink" x="0px" y="0px"
	 viewBox="0 0 64 100.3" style="enable-background:new 0 0 64 100.3;" xml:space="preserve">
<style type="text/css">
	.st0{fill:#E3E3E3;}
	.st1{fill:#FFFFFF;}
	.st2{fill:#FFFFFF;stroke:#000000;stroke-linecap:round;stroke-linejoin:round;stroke-miterlimit:10;}
	.st3{fill:#A1DAF8;}
	.st4{fill:none;stroke:#000000;stroke-linecap:round;stroke-linejoin:round;stroke-miterlimit:10;}
	.st5{enable-background:new    ;}
	.st6{fill:#4D6B89;}
	.st7{fill:#EAEAEA;}
	.st8{font-family:'Roboto-Regular';}
	.st9{font-size:7.75px;}
	.st10{fill:#1D1D1B;}
	.st11{font-family:'Roboto-Bold';}
	.st12{fill:#A0D9F7;}
	.st13{fill:none;stroke:#979797;stroke-linecap:round;stroke-linejoin:round;stroke-miterlimit:10;}
	.st14{fill:none;stroke:#009EE2;stroke-width:0.25;stroke-linecap:round;stroke-miterlimit:10;}
</style>
<g>
	<rect x="0" class="st7" width="64" height="64"/>
</g>
<text transform="matrix(1 0 0 1 -1.525879e-05 74.0044)"><tspan x="0" y="0" class="st6 st8 st9">02</tspan><tspan x="0" y="8" class="st10 st11 st9">Business and  </tspan><tspan x="0" y="16" class="st10 st11 st9">Nature</tspan></text>
<g>
	<path class="st12" d="M41.6,59.7c-9.1,0-16.5-7.4-16.5-16.5c0-0.8,0.7-1.5,1.5-1.5s1.5,0.7,1.5,1.5c0,7.4,6,13.5,13.5,13.5
		s13.5-6,13.5-13.5s-6-13.5-13.5-13.5c-4.5,0-7.2,1.4-10,2.8c-2.7,1.4-5.5,2.8-9.6,2.8c-8.6,0-15.5-7-15.5-15.5S13.5,4.4,22,4.4
		s15.5,7,15.5,15.5c0,0.8-0.7,1.5-1.5,1.5s-1.5-0.7-1.5-1.5C34.5,13,28.9,7.4,22,7.4S9.5,13,9.5,19.9S15.1,32.4,22,32.4
		c3.4,0,5.6-1.1,8.2-2.5c2.9-1.5,6.2-3.1,11.4-3.1c9.1,0,16.5,7.4,16.5,16.5S50.7,59.7,41.6,59.7z"/>
</g>
<g>
	<path class="st10" d="M41.6,59.9c-9.2,0-16.6-7.5-16.6-16.6c0-0.1,0.1-0.3,0.3-0.3s0.3,0.1,0.3,0.3c0,8.9,7.2,16.1,16.1,16.1
		s16.1-7.2,16.1-16.1s-7.2-16.1-16.1-16.1c-5.1,0-8.4,1.7-11.2,3.1c-2.6,1.3-4.9,2.5-8.4,2.5c-7.1,0-12.9-5.8-12.9-12.9S14.9,7,22,7
		c7.1,0,12.9,5.8,12.9,12.9c0,0.1-0.1,0.3-0.3,0.3s-0.3-0.1-0.3-0.3c0-6.8-5.5-12.4-12.4-12.4c-6.8,0-12.4,5.5-12.4,12.4
		S15.2,32.3,22,32.3c3.4,0,5.6-1.1,8.1-2.4c2.9-1.5,6.2-3.2,11.5-3.2c9.2,0,16.6,7.5,16.6,16.6C58.3,52.4,50.8,59.9,41.6,59.9z"/>
</g>
<g>
	<path class="st10" d="M22.2,30.9c-0.4,0-0.8-0.3-0.8-0.8v-8c0-0.4,0.3-0.8,0.8-0.8s0.8,0.3,0.8,0.8v8C23,30.6,22.6,30.9,22.2,30.9z
		"/>
</g>
<g>
	<g>
		<path class="st1" d="M12.5,30.7c-0.1,0-0.2,0-0.3-0.1L12,30.4c-0.2-0.2-0.2-0.4-0.1-0.7c1.2-1.7,2.5-3.4,3.6-4.8
			c0.2-0.2,0.4-0.5,0.5-0.7c0.4-0.6,0.9-1.2,1.5-1.7c0.7-0.6,1.6-1.3,2.8-1.7c0.1,0,0.1,0,0.2,0c0.1,0,0.2,0,0.3,0.1l0.1,0.1
			c0.1,0.1,0.2,0.3,0.1,0.5c-0.4,1.2-1,2.1-1.5,2.9c-0.4,0.6-1,1.1-1.6,1.6c-0.2,0.2-0.4,0.4-0.7,0.6c-1.4,1.2-2.9,2.6-4.6,4
			C12.7,30.6,12.6,30.7,12.5,30.7z"/>
	</g>
	<g>
		<path class="st10" d="M20.5,21.3l0.1,0.1c-0.3,1.1-0.9,1.9-1.5,2.7c-0.6,0.8-1.4,1.4-2.2,2.1c-1.5,1.3-3,2.7-4.5,3.9l-0.1-0.1
			c1.2-1.6,2.4-3.2,3.6-4.8c0.6-0.8,1.1-1.7,1.9-2.3C18.7,22.3,19.5,21.7,20.5,21.3 M20.5,20.3c-0.1,0-0.2,0-0.4,0.1
			c-1.2,0.5-2.2,1.2-2.9,1.8c-0.6,0.5-1.1,1.2-1.5,1.8c-0.2,0.2-0.3,0.5-0.5,0.7c-1.1,1.4-2.4,3.1-3.7,4.8c-0.3,0.4-0.2,1,0.1,1.3
			l0.1,0.1c0.2,0.2,0.4,0.3,0.7,0.3c0.2,0,0.4-0.1,0.6-0.2c1.7-1.3,3.2-2.8,4.6-4c0.2-0.2,0.4-0.4,0.7-0.6c0.6-0.5,1.2-1,1.7-1.7
			c0.6-0.8,1.2-1.8,1.6-3c0.1-0.4,0-0.8-0.3-1l-0.1-0.1C21,20.4,20.8,20.3,20.5,20.3L20.5,20.3z"/>
	</g>
</g>
<g>
	<g>
		<path class="st1" d="M21.4,17.9c-0.1,0-0.3-0.1-0.4-0.2c-0.9-0.9-1.4-1.9-1.7-2.8c-0.3-0.7-0.4-1.4-0.6-2.1c0-0.3-0.1-0.6-0.2-0.9
			c-0.4-1.8-0.8-3.8-1.1-5.9c0-0.2,0.1-0.5,0.3-0.6L18,5.4c0,0,0.1,0,0.1,0c0.2,0,0.4,0.1,0.5,0.3c0.9,1.9,1.7,3.9,2.4,5.6
			c0.1,0.3,0.2,0.5,0.3,0.8c0.3,0.7,0.6,1.3,0.7,2.1c0.2,0.9,0.3,2,0.1,3.3c0,0.2-0.2,0.3-0.3,0.4l-0.2,0.1
			C21.5,17.9,21.5,17.9,21.4,17.9z"/>
	</g>
	<g>
		<path class="st10" d="M18.1,5.9c0.8,1.8,1.6,3.7,2.3,5.5c0.4,0.9,0.9,1.8,1,2.8c0.2,1,0.3,2,0.1,3.1l-0.2,0.1
			c-0.8-0.8-1.2-1.7-1.6-2.6c-0.4-0.9-0.5-1.9-0.7-2.9c-0.4-2-0.8-3.9-1.1-5.9L18.1,5.9 M18.1,4.9c-0.1,0-0.2,0-0.3,0L17.7,5
			c-0.5,0.1-0.8,0.6-0.7,1.1c0.3,2.1,0.8,4.2,1.1,6c0.1,0.3,0.1,0.6,0.2,0.8c0.1,0.7,0.3,1.5,0.6,2.3c0.4,0.9,0.9,1.9,1.8,2.9
			c0.2,0.2,0.5,0.3,0.7,0.3c0.1,0,0.2,0,0.3,0l0.2-0.1c0.4-0.1,0.6-0.4,0.7-0.8c0.2-1.3,0.1-2.5-0.1-3.4c-0.1-0.8-0.5-1.5-0.8-2.2
			c-0.1-0.3-0.2-0.5-0.3-0.8c-0.7-1.7-1.5-3.7-2.4-5.6C18.9,5.1,18.5,4.9,18.1,4.9L18.1,4.9z"/>
	</g>
</g>
<g>
	<g>
		<path class="st1" d="M36.1,23.6c-2.1-0.2-4.2-0.5-6-0.8c-0.3,0-0.6-0.1-0.9-0.1c-0.7-0.1-1.5-0.2-2.2-0.4
			c-0.9-0.3-1.9-0.8-2.9-1.6c-0.1-0.1-0.2-0.3-0.2-0.5l0-0.2c0-0.2,0.2-0.3,0.4-0.4c0.6-0.1,1.2-0.2,1.8-0.2c0.4,0,0.9,0,1.4,0.1
			c0.8,0.1,1.5,0.3,2.1,0.6c0.3,0.1,0.5,0.2,0.8,0.3c1.7,0.6,3.7,1.2,5.7,2c0.2,0.1,0.4,0.3,0.3,0.6l0,0.2
			C36.6,23.4,36.4,23.6,36.1,23.6C36.2,23.6,36.2,23.6,36.1,23.6z"/>
	</g>
	<g>
		<path class="st10" d="M26.3,20c0.5,0,0.9,0,1.4,0.1c1,0.1,1.9,0.6,2.9,0.9c1.9,0.6,3.8,1.3,5.7,2l0,0.2c-2-0.2-4-0.5-6-0.8
			c-1-0.2-2-0.2-3-0.5c-0.9-0.3-1.9-0.8-2.7-1.5l0-0.2C25.2,20,25.8,20,26.3,20 M26.3,19C26.3,19,26.3,19,26.3,19
			c-0.7,0-1.3,0.1-1.9,0.2c-0.4,0.1-0.7,0.4-0.7,0.7l0,0.2c-0.1,0.4,0,0.8,0.3,1c1,0.8,2.1,1.3,3,1.6c0.8,0.3,1.5,0.4,2.3,0.5
			c0.3,0,0.6,0.1,0.8,0.1c1.8,0.3,3.9,0.6,6,0.8c0,0,0.1,0,0.1,0c0.5,0,0.9-0.3,1-0.8l0-0.2c0.1-0.5-0.1-1-0.6-1.2
			c-2-0.8-4-1.4-5.7-2c-0.3-0.1-0.5-0.2-0.8-0.3c-0.7-0.3-1.4-0.5-2.3-0.6C27.2,19,26.8,19,26.3,19L26.3,19z"/>
	</g>
</g>
<g>
	<g>
		<path class="st1" d="M22.2,21.8c-0.3,0-0.5,0-0.7-0.1c-0.5-0.2-1-0.6-1.2-1.1C20,20,20,19.4,20.2,18.9c0.3-0.9,1.1-1.4,2.1-1.4
			c0.3,0,0.5,0,0.7,0.1c0.5,0.2,1,0.6,1.2,1.1c0.2,0.5,0.3,1.1,0.1,1.7C24,21.2,23.1,21.8,22.2,21.8z"/>
	</g>
	<g>
		<path class="st10" d="M22.2,18L22.2,18c0.2,0,0.4,0,0.6,0.1c0.9,0.3,1.3,1.3,1,2.2c-0.2,0.7-0.9,1.1-1.6,1.1c-0.2,0-0.4,0-0.6-0.1
			c-0.9-0.3-1.3-1.3-1-2.2C20.9,18.4,21.5,18,22.2,18 M22.2,17c-1.1,0-2.1,0.7-2.5,1.8c-0.5,1.4,0.2,2.9,1.6,3.4
			c0.3,0.1,0.6,0.2,0.9,0.2c1.1,0,2.1-0.7,2.5-1.8c0.5-1.4-0.2-2.9-1.6-3.4C22.8,17,22.5,17,22.2,17L22.2,17z"/>
	</g>
</g>
<g>
	<path class="st1" d="M51,41.4c-1,0-1.9-0.8-1.9-1.9c0-1.1,1.4-2.3,1.4-2.3l-3-3l-0.9,1c-0.7,0.7-1.9,0.7-2.6,0
		c-0.4-0.4-0.5-0.8-0.5-1.3V32h-3.7v1.9c0,0.5-0.2,1-0.6,1.3c-0.7,0.7-1.9,0.7-2.6,0l-0.9-1l-3,3l0.9,1c0.7,0.7,0.7,1.9,0,2.6
		c-0.4,0.4-0.8,0.5-1.3,0.5h-1.9v3.7h1.9c0.5,0,1,0.2,1.3,0.6c0.7,0.7,0.7,1.9,0,2.6l-1,0.9l3,3l1-0.9c0.7-0.7,1.9-0.7,2.6,0
		c0.4,0.4,0.6,0.8,0.6,1.3v1.9h3.7v-1.9c0-0.5,0.2-1,0.5-1.3c0.7-0.7,1.9-0.7,2.6,0l0.9,1l3-3l-1-1.1c-0.3-0.3-0.5-0.8-0.5-1.2
		c0-1,0.8-1.9,1.9-1.9h1.9v-3.7H51z M41.6,48.9c-3.1,0-5.6-2.5-5.6-5.6c0-3.1,2.5-5.6,5.6-5.6c3.1,0,5.6,2.5,5.6,5.6
		C47.3,46.4,44.7,48.9,41.6,48.9z"/>
	<path class="st10" d="M44,55h-4.7v-2.4c0-0.4-0.1-0.7-0.4-1c-0.5-0.5-1.4-0.5-1.9,0l-1.3,1.2l-3.7-3.7l1.4-1.2
		c0.2-0.2,0.4-0.6,0.4-0.9c0-0.4-0.1-0.7-0.4-1c-0.3-0.3-0.6-0.4-1-0.4h-2.4v-4.7h2.4c0.4,0,0.7-0.1,1-0.4c0.3-0.3,0.4-0.6,0.4-1
		c0-0.4-0.1-0.7-0.4-1l-1.2-1.4l3.7-3.7l1.2,1.4c0.5,0.5,1.4,0.5,1.9,0c0.3-0.3,0.4-0.6,0.4-1v-2.4H44v2.4c0,0.4,0.1,0.7,0.4,1
		c0.5,0.5,1.4,0.5,1.9,0l1.2-1.4l3.7,3.7l-0.4,0.4c-0.3,0.3-1.2,1.2-1.2,1.9c0,0.8,0.6,1.4,1.4,1.4h2.4v4.7H51
		c-0.8,0-1.4,0.6-1.4,1.4c0,0.3,0.1,0.7,0.3,0.9l1.3,1.4L47.6,53l-1.2-1.4c-0.5-0.5-1.4-0.5-1.9,0c-0.3,0.3-0.4,0.6-0.4,1V55z
		 M40.3,54H43v-1.4c0-0.6,0.2-1.2,0.7-1.7c0.9-0.9,2.4-0.9,3.4,0l0.5,0.6l2.3-2.3l-0.6-0.7c-0.4-0.4-0.6-1-0.6-1.6
		c0-1.3,1.1-2.4,2.4-2.4h1.4v-2.7H51c-1.3,0-2.4-1.1-2.4-2.4c0-0.9,0.7-1.8,1.2-2.3L47.6,35l-0.5,0.6c-0.9,0.9-2.4,0.9-3.4,0
		c-0.4-0.4-0.7-1-0.7-1.7v-1.4h-2.7v1.4c0,0.6-0.2,1.2-0.7,1.7c-0.9,0.9-2.4,0.9-3.3,0L35.7,35l-2.3,2.3l0.6,0.6
		c0.4,0.4,0.7,1,0.7,1.6c0,0.6-0.2,1.2-0.7,1.7c-0.4,0.4-1,0.7-1.7,0.7h-1.4v2.7h1.4c0.6,0,1.2,0.2,1.7,0.7c0.4,0.4,0.7,1,0.7,1.7
		c0,0.6-0.2,1.2-0.7,1.7l-0.6,0.5l2.3,2.3l0.6-0.6c0.9-0.9,2.4-0.9,3.3,0c0.5,0.5,0.7,1,0.7,1.7V54z M41.6,49.4
		c-3.4,0-6.1-2.7-6.1-6.1s2.7-6.1,6.1-6.1s6.1,2.7,6.1,6.1S45,49.4,41.6,49.4z M41.6,38.2c-2.8,0-5.1,2.3-5.1,5.1s2.3,5.1,5.1,5.1
		s5.1-2.3,5.1-5.1S44.5,38.2,41.6,38.2z"/>
</g>
</svg>
