<?xml version="1.0" encoding="utf-8"?>
<!-- Generator: Adobe Illustrator 22.1.0, SVG Export Plug-In . SVG Version: 6.00 Build 0)  -->
<svg version="1.1" id="Layer_1" xmlns="http://www.w3.org/2000/svg" xmlns:xlink="http://www.w3.org/1999/xlink" x="0px" y="0px"
	 viewBox="0 0 64 90" style="enable-background:new 0 0 64 90;" xml:space="preserve">
<style type="text/css">
	.st0{fill:#EAEAEA;}
	.st1{fill:#1D1D1B;}
	.st2{font-family:'Roboto', sans-serif;}
	.st3{font-size:7.75px;}
	.st4{fill:none;stroke:#A0D9F7;stroke-width:3;stroke-linecap:round;stroke-linejoin:round;stroke-miterlimit:10;}
	.st5{fill:none;stroke:#1D1D1B;stroke-width:0.5088;stroke-linecap:round;stroke-miterlimit:10;}
	.st6{fill:none;stroke:#1D1D1B;stroke-width:1.5;stroke-linecap:round;stroke-miterlimit:10;}
	.st7{fill:#FFFFFF;}
	.st8{fill:none;stroke:#979797;stroke-linecap:round;stroke-linejoin:round;stroke-miterlimit:10;}
	.st9{fill:none;stroke:#009EE2;stroke-width:0.25;stroke-linecap:round;stroke-miterlimit:10;}
	.st10{fill:#FFFFFF;stroke:#1D1D1B;stroke-linecap:round;stroke-miterlimit:10;}
</style>
<g>
	<rect y="0" class="st0" width="64" height="64"/>
</g>
<text transform="matrix(1 0 0 1 -2.441406e-04 74.0044)" class="st1 st2 st3">Business and  </text>
<text transform="matrix(1 0 0 1 -2.441406e-04 82.0044)" class="st1 st2 st3">Nature</text>
<path class="st4" d="M36,19.9c0-7.7-6.3-14-14-14s-14,6.3-14,14s6.3,14,14,14c7.9,0,10.3-5.6,19.6-5.6c8.3,0,15,6.7,15,15
	s-6.7,15-15,15s-15-6.7-15-15"/>
<path class="st5" d="M34.6,19.9c0-7-5.7-12.6-12.6-12.6S9.4,12.9,9.4,19.9S15.1,32.5,22,32.5c3.4,0,5.7-1.1,8.3-2.5
	c2.9-1.5,6.1-3.1,11.4-3.1c9,0,16.4,7.3,16.4,16.4s-7.3,16.4-16.4,16.4s-16.4-7.3-16.4-16.4"/>
<line class="st6" x1="22.2" y1="22.2" x2="22.2" y2="30.2"/>
<g>
	<path class="st7" d="M12.5,30.7c-0.1,0-0.2,0-0.3-0.1L12,30.4c-0.2-0.2-0.2-0.4-0.1-0.7c1.2-1.7,2.5-3.4,3.6-4.8
		c0.2-0.2,0.4-0.5,0.5-0.7c0.4-0.6,0.9-1.2,1.5-1.7c0.7-0.6,1.6-1.3,2.8-1.7c0.1,0,0.1,0,0.2,0s0.2,0,0.3,0.1l0.1,0.1
		c0.1,0.1,0.2,0.3,0.1,0.5c-0.4,1.2-1,2.1-1.5,2.9c-0.4,0.6-1,1.1-1.6,1.6c-0.2,0.2-0.4,0.4-0.7,0.6c-1.4,1.2-2.9,2.6-4.6,4
		C12.7,30.6,12.6,30.7,12.5,30.7z"/>
	<path class="st1" d="M20.5,21.3l0.1,0.1c-0.3,1.1-0.9,1.9-1.5,2.7c-0.6,0.8-1.4,1.4-2.2,2.1c-1.5,1.3-3,2.7-4.5,3.9L12.3,30
		c1.2-1.6,2.4-3.2,3.6-4.8c0.6-0.8,1.1-1.7,1.9-2.3C18.7,22.3,19.5,21.7,20.5,21.3 M20.5,20.3c-0.1,0-0.2,0-0.4,0.1
		c-1.2,0.5-2.2,1.2-2.9,1.8c-0.6,0.5-1.1,1.2-1.5,1.8c-0.2,0.2-0.3,0.5-0.5,0.7c-1.1,1.4-2.4,3.1-3.7,4.8c-0.3,0.4-0.2,1,0.1,1.3
		l0.1,0.1c0.2,0.2,0.4,0.3,0.7,0.3c0.2,0,0.4-0.1,0.6-0.2c1.7-1.3,3.2-2.8,4.6-4c0.2-0.2,0.4-0.4,0.7-0.6c0.6-0.5,1.2-1,1.7-1.7
		c0.6-0.8,1.2-1.8,1.6-3c0.1-0.4,0-0.8-0.3-1l-0.1-0.1C21,20.4,20.8,20.3,20.5,20.3L20.5,20.3z"/>
</g>
<g>
	<path class="st7" d="M21.4,17.9c-0.1,0-0.3-0.1-0.4-0.2c-0.9-0.9-1.4-1.9-1.7-2.8c-0.3-0.7-0.4-1.4-0.6-2.1c0-0.3-0.1-0.6-0.2-0.9
		c-0.4-1.8-0.8-3.8-1.1-5.9c0-0.2,0.1-0.5,0.3-0.6l0.3,0h0.1c0.2,0,0.4,0.1,0.5,0.3c0.9,1.9,1.7,3.9,2.4,5.6
		c0.1,0.3,0.2,0.5,0.3,0.8c0.3,0.7,0.6,1.3,0.7,2.1c0.2,0.9,0.3,2,0.1,3.3c0,0.2-0.2,0.3-0.3,0.4L21.6,18
		C21.5,17.9,21.5,17.9,21.4,17.9z"/>
	<path class="st1" d="M18.1,5.9c0.8,1.8,1.6,3.7,2.3,5.5c0.4,0.9,0.9,1.8,1,2.8c0.2,1,0.3,2,0.1,3.1l-0.2,0.1
		c-0.8-0.8-1.2-1.7-1.6-2.6c-0.4-0.9-0.5-1.9-0.7-2.9c-0.4-2-0.8-3.9-1.1-5.9L18.1,5.9 M18.1,4.9c-0.1,0-0.2,0-0.3,0L17.7,5
		c-0.5,0.1-0.8,0.6-0.7,1.1c0.3,2.1,0.8,4.2,1.1,6c0.1,0.3,0.1,0.6,0.2,0.8c0.1,0.7,0.3,1.5,0.6,2.3c0.4,0.9,0.9,1.9,1.8,2.9
		c0.2,0.2,0.5,0.3,0.7,0.3c0.1,0,0.2,0,0.3,0l0.2-0.1c0.4-0.1,0.6-0.4,0.7-0.8c0.2-1.3,0.1-2.5-0.1-3.4c-0.1-0.8-0.5-1.5-0.8-2.2
		c-0.1-0.3-0.2-0.5-0.3-0.8c-0.7-1.7-1.5-3.7-2.4-5.6C18.9,5.1,18.5,4.9,18.1,4.9L18.1,4.9z"/>
</g>
<g>
	<path class="st7" d="M36.1,23.6c-2.1-0.2-4.2-0.5-6-0.8c-0.3,0-0.6-0.1-0.9-0.1c-0.7-0.1-1.5-0.2-2.2-0.4c-0.9-0.3-1.9-0.8-2.9-1.6
		c-0.1-0.1-0.2-0.3-0.2-0.5V20c0-0.2,0.2-0.3,0.4-0.4c0.6-0.1,1.2-0.2,1.8-0.2c0.4,0,0.9,0,1.4,0.1c0.8,0.1,1.5,0.3,2.1,0.6
		c0.3,0.1,0.5,0.2,0.8,0.3c1.7,0.6,3.7,1.2,5.7,2c0.2,0.1,0.4,0.3,0.3,0.6v0.2C36.6,23.4,36.4,23.6,36.1,23.6
		C36.2,23.6,36.2,23.6,36.1,23.6z"/>
	<path class="st1" d="M26.3,20c0.5,0,0.9,0,1.4,0.1c1,0.1,1.9,0.6,2.9,0.9c1.9,0.6,3.8,1.3,5.7,2v0.2c-2-0.2-4-0.5-6-0.8
		c-1-0.2-2-0.2-3-0.5c-0.9-0.3-1.9-0.8-2.7-1.5v-0.2C25.2,20,25.8,20,26.3,20 M26.3,19L26.3,19c-0.7,0-1.3,0.1-1.9,0.2
		c-0.4,0.1-0.7,0.4-0.7,0.7v0.2c-0.1,0.4,0,0.8,0.3,1c1,0.8,2.1,1.3,3,1.6c0.8,0.3,1.5,0.4,2.3,0.5c0.3,0,0.6,0.1,0.8,0.1
		c1.8,0.3,3.9,0.6,6,0.8h0.1c0.5,0,0.9-0.3,1-0.8v-0.2c0.1-0.5-0.1-1-0.6-1.2c-2-0.8-4-1.4-5.7-2c-0.3-0.1-0.5-0.2-0.8-0.3
		c-0.7-0.3-1.4-0.5-2.3-0.6C27.2,19,26.8,19,26.3,19L26.3,19z"/>
</g>
<g>
	<path class="st7" d="M22.2,21.8c-0.3,0-0.5,0-0.7-0.1c-0.5-0.2-1-0.6-1.2-1.1C20,20,20,19.4,20.2,18.9c0.3-0.9,1.1-1.4,2.1-1.4
		c0.3,0,0.5,0,0.7,0.1c0.5,0.2,1,0.6,1.2,1.1s0.3,1.1,0.1,1.7C24,21.2,23.1,21.8,22.2,21.8z"/>
	<path class="st1" d="M22.2,18L22.2,18c0.2,0,0.4,0,0.6,0.1c0.9,0.3,1.3,1.3,1,2.2c-0.2,0.7-0.9,1.1-1.6,1.1c-0.2,0-0.4,0-0.6-0.1
		c-0.9-0.3-1.3-1.3-1-2.2C20.9,18.4,21.5,18,22.2,18 M22.2,17c-1.1,0-2.1,0.7-2.5,1.8c-0.5,1.4,0.2,2.9,1.6,3.4
		c0.3,0.1,0.6,0.2,0.9,0.2c1.1,0,2.1-0.7,2.5-1.8c0.5-1.4-0.2-2.9-1.6-3.4C22.8,17,22.5,17,22.2,17L22.2,17z"/>
</g>
<path class="st8" d="M10.1,20.2"/>
<path class="st9" d="M47.3,35.8"/>
<path class="st10" d="M51,41.4c-1,0-1.9-0.8-1.9-1.9c0-1.1,1.4-2.3,1.4-2.3l-3-3l-0.9,1c-0.7,0.7-1.9,0.7-2.6,0
	c-0.4-0.4-0.5-0.8-0.5-1.3V32h-3.7v1.9c0,0.5-0.2,1-0.6,1.3c-0.7,0.7-1.9,0.7-2.6,0l-0.9-1l-3,3l0.9,1c0.7,0.7,0.7,1.9,0,2.6
	c-0.4,0.4-0.8,0.5-1.3,0.5h-1.9V45h1.9c0.5,0,1,0.2,1.3,0.6c0.7,0.7,0.7,1.9,0,2.6l-1,0.9l3,3l1-0.9c0.7-0.7,1.9-0.7,2.6,0
	c0.4,0.4,0.6,0.8,0.6,1.3v1.9h3.7v-1.9c0-0.5,0.2-1,0.5-1.3c0.7-0.7,1.9-0.7,2.6,0l0.9,1l3-3l-1-1.1c-0.3-0.3-0.5-0.8-0.5-1.2
	c0-1,0.8-1.9,1.9-1.9h1.9v-3.7H51V41.4z M41.6,48.9c-3.1,0-5.6-2.5-5.6-5.6s2.5-5.6,5.6-5.6s5.6,2.5,5.6,5.6
	C47.3,46.4,44.7,48.9,41.6,48.9z"/>
</svg>
