<svg xmlns="http://www.w3.org/2000/svg" width="45.502" height="45.502" viewBox="0 0 45.502 45.502"><g transform="translate(18.201)"><path d="M196.55,0a4.55,4.55,0,1,0,4.55,4.55A4.55,4.55,0,0,0,196.55,0Zm0,7.584a3.033,3.033,0,1,1,3.033-3.033A3.033,3.033,0,0,1,196.55,7.584Z" transform="translate(-192)"/></g><g transform="translate(15.926 9.859)"><path d="M177.859,104h-.179l-.16.08a6.045,6.045,0,0,1-5.389,0l-.16-.08h-.179A3.8,3.8,0,0,0,168,107.792v4.55a2.275,2.275,0,0,0,2.275,2.275h9.1a2.275,2.275,0,0,0,2.275-2.275v-4.55A3.8,3.8,0,0,0,177.859,104Zm2.275,8.342a.758.758,0,0,1-.758.758h-9.1a.758.758,0,0,1-.758-.758v-4.55a2.275,2.275,0,0,1,2.114-2.269,7.59,7.59,0,0,0,6.39,0,2.275,2.275,0,0,1,2.114,2.269Z" transform="translate(-168 -104)"/></g><g transform="translate(34.127 25.026)"><path d="M364.55,264a4.55,4.55,0,1,0,4.55,4.55A4.55,4.55,0,0,0,364.55,264Zm0,7.584a3.033,3.033,0,1,1,3.033-3.033A3.033,3.033,0,0,1,364.55,271.584Z" transform="translate(-360 -264)"/></g><g transform="translate(31.851 34.885)"><path d="M345.859,368h-.179l-.16.076a6.046,6.046,0,0,1-5.389,0l-.16-.076h-.179A3.8,3.8,0,0,0,336,371.792v4.55a2.275,2.275,0,0,0,2.275,2.275h9.1a2.275,2.275,0,0,0,2.275-2.275v-4.55A3.8,3.8,0,0,0,345.859,368Zm2.275,8.342a.758.758,0,0,1-.758.758h-9.1a.758.758,0,0,1-.758-.758v-4.55a2.275,2.275,0,0,1,2.114-2.269,7.589,7.589,0,0,0,6.39,0,2.275,2.275,0,0,1,2.114,2.269Z" transform="translate(-336 -368)"/></g><g transform="translate(2.275 25.026)"><path d="M28.55,264a4.55,4.55,0,1,0,4.55,4.55A4.55,4.55,0,0,0,28.55,264Zm0,7.584a3.033,3.033,0,1,1,3.033-3.033A3.033,3.033,0,0,1,28.55,271.584Z" transform="translate(-24 -264)"/></g><g transform="translate(0 34.885)"><path d="M9.859,368H9.68l-.16.076a6.046,6.046,0,0,1-5.389,0L3.971,368H3.792A3.8,3.8,0,0,0,0,371.792v4.55a2.275,2.275,0,0,0,2.275,2.275h9.1a2.275,2.275,0,0,0,2.275-2.275v-4.55A3.8,3.8,0,0,0,9.859,368Zm2.275,8.342a.758.758,0,0,1-.758.758h-9.1a.758.758,0,0,1-.758-.758v-4.55a2.275,2.275,0,0,1,2.114-2.269,7.589,7.589,0,0,0,6.39,0,2.275,2.275,0,0,1,2.114,2.269Z" transform="translate(0 -368)"/></g><g transform="translate(15.167 37.16)"><path d="M175.106,393.349v0a.758.758,0,0,0-.995-.4h0a16.822,16.822,0,0,1-10.817.745l.71-.209a.759.759,0,0,0-.426-1.456l-3.033.89c-.011,0-.02.013-.03.017a.751.751,0,0,0-.2.108.67.67,0,0,0-.076.048.734.734,0,0,0-.186.258.76.76,0,0,0-.058.313,2.338,2.338,0,0,0,.076.3c0,.011,0,.023.008.033l1.517,2.9a.759.759,0,1,0,1.345-.7l-.617-1.18a18.254,18.254,0,0,0,12.376-.673A.758.758,0,0,0,175.106,393.349Z" transform="translate(-159.998 -391.995)"/></g><g transform="translate(28.818 5.936)"><path d="M318.185,76.625a.758.758,0,0,0-1.072,0L316.039,77.7a18.173,18.173,0,0,0-10.986-15.016.758.758,0,1,0-.595,1.4,16.659,16.659,0,0,1,10.031,13.4l-.855-.855a.758.758,0,0,0-1.072,1.072l2.275,2.275a.758.758,0,0,0,1.073,0h0l2.275-2.275A.758.758,0,0,0,318.185,76.625Z" transform="translate(-303.998 -62.622)"/></g><g transform="translate(4.55 4.563)"><path d="M60.112,50.138a.7.7,0,0,0-.02-.131c0-.007-.008-.011-.011-.019s0-.013,0-.019a.728.728,0,0,0-.071-.1.766.766,0,0,0-.086-.125.712.712,0,0,0-.148-.1.667.667,0,0,0-.085-.061l-3.033-1.386a.758.758,0,0,0-.629,1.379l1.571.718A18.173,18.173,0,0,0,48,66.323a.758.758,0,0,0,1.517,0,16.658,16.658,0,0,1,8.208-14.367L57.176,53.1a.758.758,0,0,0,.354,1.011.747.747,0,0,0,.328.076.758.758,0,0,0,.683-.43l1.517-3.165a.035.035,0,0,1,.006-.024.729.729,0,0,0,.041-.161.784.784,0,0,0,.029-.125A.756.756,0,0,0,60.112,50.138Z" transform="translate(-48 -48.134)"/></g></svg>