<svg xmlns="http://www.w3.org/2000/svg" width="60.38" height="78.756" viewBox="0 0 60.38 78.756"><g transform="translate(-0.109)"><path d="M.109,58.215V126.47a1.313,1.313,0,0,0,1.313,1.313H51.3a1.313,1.313,0,0,0,1.312-1.313V71.341c0-.029-.014-.054-.017-.083a1.238,1.238,0,0,0-.067-.337c-.015-.042-.025-.083-.043-.124a1.3,1.3,0,0,0-.263-.384L39.1,57.287a1.273,1.273,0,0,0-.386-.263,1.185,1.185,0,0,0-.121-.043,1.3,1.3,0,0,0-.34-.068c-.022,0-.048-.01-.076-.01H1.422A1.312,1.312,0,0,0,.109,58.215ZM48.132,70.028H39.487V61.383Zm-45.4-10.5H36.862V71.341a1.312,1.312,0,0,0,1.312,1.312H49.988v52.5H2.734Zm0,0" transform="translate(0 -49.026)"/><path d="M104.262,68.255V70.88H108.2a1.312,1.312,0,0,0,1.313-1.312V1.313A1.313,1.313,0,0,0,108.2,0H58.321a1.313,1.313,0,0,0-1.313,1.313V5.25h2.625V2.625h47.253v65.63Zm0,0" transform="translate(-49.023)"/><path d="M75.977,189.668h31.5v2.625h-31.5Zm0,0" transform="translate(-65.366 -163.416)"/><path d="M75.977,132.766h10.5v2.625h-10.5Zm0,0" transform="translate(-65.366 -114.389)"/><path d="M75.977,246.566h21v2.625h-21Zm0,0" transform="translate(-65.366 -212.439)"/><path d="M246.676,246.566h7.875v2.625h-7.875Zm0,0" transform="translate(-212.439 -212.439)"/><path d="M75.977,303.465h31.5v2.626h-31.5Zm0,0" transform="translate(-65.366 -261.462)"/><path d="M75.977,417.266h31.5v2.626h-31.5Zm0,0" transform="translate(-65.366 -359.511)"/><path d="M161.324,360.367h19.689v2.625H161.324Zm0,0" transform="translate(-138.901 -310.488)"/><path d="M75.977,360.367h9.188v2.625H75.977Zm0,0" transform="translate(-65.366 -310.488)"/><path d="M75.977,474.168h5.25v2.625h-5.25Zm0,0" transform="translate(-65.366 -408.538)"/><path d="M132.875,474.168H156.5v2.625H132.875Zm0,0" transform="translate(-114.389 -408.538)"/></g></svg>