<svg xmlns="http://www.w3.org/2000/svg" width="100.792" height="91.155" viewBox="0 0 100.792 91.155"><defs><style>.a{fill:#212222;}</style></defs><g transform="translate(-1429.301 -13792.221)"><g transform="translate(1429.301 13813.383)"><g transform="translate(15.084 61.88)"><g transform="translate(0 0)"><path d="M6.538,5,3.574.829A1.969,1.969,0,1,0,.364,3.108L3.327,7.283A1.969,1.969,0,1,0,6.538,5Z" transform="translate(0 0)"/></g></g><g transform="translate(0 0)"><g transform="translate(0)"><path d="M44.333,67.62,41.108,52.248a28.991,28.991,0,0,0-12.261-18.2l-6.886-4.631a6.927,6.927,0,0,0-8.781.9V6.592A6.59,6.59,0,0,0,2.466,1.452,6.559,6.559,0,0,0,0,6.592V37.115a19.069,19.069,0,0,0,3.539,11.1l3.511,4.945a1.969,1.969,0,0,0,3.21-2.279L6.749,45.933a15.152,15.152,0,0,1-2.812-8.818V6.592a2.653,2.653,0,1,1,5.306,0V30.809a13.755,13.755,0,0,0,3.548,9.235c.1.118.2.234.305.347,1.307,1.385,2.844,3.018,4.292,4.556L19.415,47.1l.02.02,3.039,3.234a1.968,1.968,0,1,0,2.87-2.7c-.036-.038-2.34-2.492-4.972-5.289l-4.514-4.8-.033-.037a3.322,3.322,0,0,1,.064-4.354,2.976,2.976,0,0,1,3.875-.495l6.886,4.63a25.074,25.074,0,0,1,10.6,15.742L40.48,68.428a1.969,1.969,0,1,0,3.853-.809Z" transform="translate(0 0)"/></g></g><g transform="translate(11.001 56.129)"><g transform="translate(0 0)"><path d="M3.584.843,3.571.825A1.969,1.969,0,0,0,.366,3.112l.013.018A1.969,1.969,0,0,0,3.584.843Z"/></g></g><g transform="translate(56.415 0.001)"><g transform="translate(0 0)"><path d="M41.91,1.452A6.59,6.59,0,0,0,31.2,6.592V30.312a6.927,6.927,0,0,0-8.781-.9l-6.886,4.63a28.99,28.99,0,0,0-12.261,18.2L.042,67.619a1.968,1.968,0,1,0,3.853.808L7.121,53.055a25.074,25.074,0,0,1,10.6-15.742l6.886-4.63a2.976,2.976,0,0,1,3.875.495,3.322,3.322,0,0,1,.068,4.349l-.037.042L19.032,47.662a1.968,1.968,0,1,0,2.87,2.7c.027-.028,8.071-8.581,9.378-9.967.106-.113.207-.229.305-.347a13.756,13.756,0,0,0,3.548-9.235V6.592a2.653,2.653,0,1,1,5.306,0V37.115a15.152,15.152,0,0,1-2.812,8.818L22.754,66.884a1.969,1.969,0,1,0,3.21,2.279L40.838,48.212a19.069,19.069,0,0,0,3.539-11.1V6.592A6.561,6.561,0,0,0,41.91,1.452Z" transform="translate(0 0)"/></g></g></g><g transform="matrix(0.998, 0.07, -0.07, 0.998, 1460.347, 13792.221)"><g transform="translate(0 0)"><g transform="translate(0 0)"><path class="a" d="M47.009,23.516c0-.028,0-.056-.008-.085L44.635,6.973a.922.922,0,0,0-1.256-.724L32.494,10.625a.922.922,0,1,0,.688,1.71l9.8-3.938L45.16,23.584a.924.924,0,0,0,.013.129,12.3,12.3,0,0,1-18.3,12.668c-.02-.011-.04-.021-.06-.031a16.7,16.7,0,0,0,1.724-1.507l10.79-2.891a.922.922,0,0,0-.477-1.781l-8.3,2.225a16.693,16.693,0,0,0,2.114-4.455l7.407-1.985a.922.922,0,0,0-.477-1.781l-5.45,1.46,2.05-3.55,4.331-1.161a.922.922,0,0,0-.477-1.781l-2.551.683,1.961-3.4a.922.922,0,1,0-1.6-.922l-1.961,3.4-.683-2.551a.922.922,0,1,0-1.781.477L34.6,21.164l-1.2,2.077a16.646,16.646,0,0,0-10.7-15.708l-.018-.007L18.5,5.833a.922.922,0,0,0-.693,1.708l4.133,1.677L22,9.243a14.819,14.819,0,0,1,2.888,26.213l-1.547-2.679L26.7,20.261a.922.922,0,1,0-1.781-.477L22.039,30.519l-3.412-5.911,2.327-8.683a.922.922,0,1,0-1.781-.477l-1.849,6.9-2.69-4.659,1.4-5.229a.922.922,0,1,0-1.781-.477l-.924,3.448L10.781,11.02a.922.922,0,0,0-1.6.922l2.548,4.414-3.448-.924a.922.922,0,0,0-.477,1.781l5.229,1.4,2.69,4.659-6.9-1.849A.922.922,0,0,0,8.348,23.2L17.03,25.53l3.412,5.911L9.708,28.565a.922.922,0,0,0-.477,1.781L21.746,33.7l1.547,2.679A14.808,14.808,0,0,1,2.051,20.673a.9.9,0,0,0,.013-.137L4.7,2.219,10.8,4.7A.922.922,0,0,0,11.5,2.989L4.3.068A.922.922,0,0,0,3.039.791L.222,20.392a.912.912,0,0,0-.009.093,16.67,16.67,0,0,0,24,17.491l1.133,1.962a.922.922,0,1,0,1.6-.922l-.42-.728a14.091,14.091,0,0,0,6.506,1.6A14.253,14.253,0,0,0,36.7,39.4,14.113,14.113,0,0,0,47.009,23.516Z"/></g></g><g transform="translate(12.125 3.783)"><g transform="translate(0 0)"><path class="a" d="M3.618.621a2.118,2.118,0,0,0-3,0,2.121,2.121,0,0,0,0,3,2.118,2.118,0,0,0,3,0,2.121,2.121,0,0,0,0-3Z"/></g></g></g></g></svg>