<svg xmlns="http://www.w3.org/2000/svg" width="46.056" height="46.093" viewBox="0 0 46.056 46.093"><path d="M45.7,5.372a18.546,18.546,0,0,0-1.607-3.657.689.689,0,0,0-.729-.307,18.542,18.542,0,0,0-3.742,1.4,10.744,10.744,0,0,0-5.362,5.115,9.908,9.908,0,0,0-.309,6.013,19.148,19.148,0,0,0-3.6-3.133A27.89,27.89,0,0,0,27.221,6a.676.676,0,0,0-1.048.852,27.035,27.035,0,0,1,2.491,3.665l-6.151-1.2L16.67,1.349a9.526,9.526,0,0,1,1.7.174,11.661,11.661,0,0,1,5.275,2.719.676.676,0,0,0,.876-1.028A12.989,12.989,0,0,0,18.632.2C15.539-.408,11.93.387,8.2,2.5A26.958,26.958,0,0,0,3.475,5.869a.715.715,0,0,0-.08.927A27.551,27.551,0,0,0,6.423,11.55a21.114,21.114,0,0,0,3.192,3.281q-.472.4-.917.829a15.61,15.61,0,0,0,5.05,25.622.676.676,0,0,0,.508-1.251,14.256,14.256,0,0,1-2.921-1.607A7.608,7.608,0,0,0,10.189,33.1c-.214-.333.426-1.643.808-2.425a12.66,12.66,0,0,0,.992-2.424,1.848,1.848,0,0,0-.657-2.024,4.983,4.983,0,0,0-1.605-.711,3.453,3.453,0,0,1-.882-.345A9,9,0,0,1,7.7,23.309,11.544,11.544,0,0,0,6.467,21.28a14.359,14.359,0,0,1,4.262-5.616,11.81,11.81,0,0,0,5.69,2.114c-2.386,1.849-3.158,4.21-2.055,6.478,1.288,2.648,3.941,2.225,6.28,1.853.4-.065.824-.131,1.225-.181.151-.019.2.022.226.049.512.456.5,2.632.486,4.222-.015,2.2-.029,4.275.79,5.342a2.061,2.061,0,0,0,1.7.821,3.4,3.4,0,0,0,1.333-.3c2.037-.872,4.154-3.5,3.831-5.574-.282-1.816-.469-3.015-.029-3.982.407-.895,1.391-1.723,3.329-2.781A14.259,14.259,0,0,1,18.037,40.985a.676.676,0,0,0-.148,1.343,15.7,15.7,0,0,0,12.638-4.356,15.6,15.6,0,0,0-2.4-24.23c.892-.636,1.557-1.186,1.925-1.505A17.928,17.928,0,1,1,1.929,23.9.676.676,0,0,0,.6,23.675,19.272,19.272,0,0,0,16.473,45.831a19.539,19.539,0,0,0,3.182.262,19.285,19.285,0,0,0,17.637-26.97A19.446,19.446,0,0,0,40.405,17.9a10.744,10.744,0,0,0,5.362-5.115A10.738,10.738,0,0,0,45.7,5.372ZM6.507,23.939A8.409,8.409,0,0,0,7.978,26.2a3.873,3.873,0,0,0,1.352.6c1.32.406,1.473.6,1.346,1.127a11.786,11.786,0,0,1-.892,2.149c-.7,1.427-1.356,2.774-.732,3.747a6.422,6.422,0,0,1,1.022,3.583A14.391,14.391,0,0,1,5.913,22.849C6.111,23.19,6.32,23.585,6.507,23.939ZM39.176,10.669l-1.919-4.65A12.637,12.637,0,0,1,40.2,4.026a18.023,18.023,0,0,1,2.134-.9Zm4.4-7.018A18.11,18.11,0,0,1,44.42,5.81a12.91,12.91,0,0,1,.612,3.255l-4.5,1.855ZM35.5,8.445a6.431,6.431,0,0,1,.754-1.311l2.185,5.293-1.96,4.688a17.928,17.928,0,0,1-.875-2.224A9.66,9.66,0,0,1,35.5,8.445Zm4.326,8.231a17.939,17.939,0,0,1-2.066.875L39.8,12.686l5.178-2.137a6.514,6.514,0,0,1-.452,1.707A9.659,9.659,0,0,1,39.828,16.675ZM15.48,16.291c-.239-.047-.474-.1-.706-.169l7.473-5.478,6.154,1.2C26.159,13.609,20.7,17.314,15.48,16.291ZM8.65,12.066A26.288,26.288,0,0,1,5.208,7.322l7.831,1.527Zm1.383-9.009L13.31,7.526,5.428,5.99A26.619,26.619,0,0,1,10.033,3.057Zm5.23,4.85L11.291,2.489a15.188,15.188,0,0,1,3.774-1.044L20.56,8.939ZM14.843,9.2l5.6,1.092-7.188,5.268a13.97,13.97,0,0,1-3.643-2.526ZM33.165,22.387c-2.434,1.3-3.626,2.316-4.192,3.558-.607,1.334-.385,2.767-.077,4.749.182,1.169-1.207,3.346-3.027,4.125-.674.288-1.153.254-1.426-.1-.536-.7-.522-2.812-.51-4.509.016-2.349.03-4.378-.939-5.24a1.592,1.592,0,0,0-1.29-.38c-.425.053-.855.122-1.271.188-2.482.4-4.044.554-4.853-1.11-1.311-2.694,1.343-4.69,2.545-5.423a4.277,4.277,0,0,0,.683-.521,19.633,19.633,0,0,0,8.1-3.155A14.333,14.333,0,0,1,33.165,22.387Zm0,0" transform="translate(-0.334)"/></svg>