<svg id="Group_87" data-name="Group 87" xmlns="http://www.w3.org/2000/svg" width="64.882" height="64.882" viewBox="0 0 64.882 64.882">
  <path id="Path_138" data-name="Path 138" d="M60.535,16.231A32.433,32.433,0,0,0,1.119,24.053a32.439,32.439,0,0,0,42.93,38.686,1.267,1.267,0,1,0-.909-2.365,29.707,29.707,0,0,1-28.587-3.929l1.135-5.926.547-.178a3.947,3.947,0,0,0,2.531-4.967l-.4-1.235a1.4,1.4,0,0,1,0-.874,3.942,3.942,0,0,0-2.99-5.1l-2.86-.559L7,33.413a1.267,1.267,0,0,0-1.158-.2l-3.231,1.05a29.874,29.874,0,0,1,0-3.46c.127.119.21.2.262.252a1.328,1.328,0,0,0,1.238.635,18.4,18.4,0,0,0,2.271-.259c1.069-.158,2.132-.336,2.143-.338a1.267,1.267,0,0,0,.837-1.963L7.8,26.854l2.225-1.591a1.268,1.268,0,0,0,.363-.4l3.45-6.022,1.391-1.49a5.353,5.353,0,0,0,1.033-5.677,5.828,5.828,0,0,0-2.308-2.719A29.861,29.861,0,0,1,32.1,2.558L29.838,5.4,21.447,8.339a1.267,1.267,0,0,0-.752.712l-2.343,5.681a1.267,1.267,0,0,0,.14,1.219l3.423,4.794a12.044,12.044,0,0,0-1.537,1.907c-.25.355-.486.69-.649.877-.142.163-.284.323-.424.481a11.858,11.858,0,0,0-2.038,2.829,7.551,7.551,0,0,0,.627,7.634,7.112,7.112,0,0,0,6.715,2.882,9.866,9.866,0,0,0,1.238-.25c1.086-.269,1.431-.3,1.779.031.17.159.185.189.182.727a4.925,4.925,0,0,0,.113,1.256,4,4,0,0,0,1.071,1.749,2.84,2.84,0,0,1,.459.586,3.155,3.155,0,0,1-.154,2.621q-.048.148-.1.3c-.573,1.773.226,3.533.93,5.084.229.5.445.98.586,1.4,1.139,3.381,1.993,4.155,2.679,4.467a2.641,2.641,0,0,0,1.106.235c1.827,0,3.733-1.7,4.609-2.771a3.9,3.9,0,0,0,.784-1.845,2.02,2.02,0,0,1,.162-.566,3.32,3.32,0,0,1,.416-.535,4.4,4.4,0,0,0,1.036-1.721,2.789,2.789,0,0,1,.86-1.349c.087-.093.18-.192.28-.3,1.688-1.837,1.253-3.24.793-4.725-.387-1.25.29-2.049,1.928-3.575a13.687,13.687,0,0,0,2.012-2.167,2.736,2.736,0,0,0,.536-2.538c-.458-1.063-1.623-1.242-2.559-1.385a4.2,4.2,0,0,1-1.106-.259,5.991,5.991,0,0,1-1.728-2.617c-.092-.206-.183-.409-.276-.606-.165-.352-.329-.778-.5-1.229a10.631,10.631,0,0,0-1.873-3.489,8.093,8.093,0,0,0-3.636-1.615c-.447-.121-.869-.235-1.148-.338a1.265,1.265,0,0,0-.728-.045,3.288,3.288,0,0,0-1.351.559,1.574,1.574,0,0,0-.451.607,14.494,14.494,0,0,1-1.494-.909l-.024-.016a1.8,1.8,0,0,0-.113-1.22c-.708-1.5-3.058-1.38-3.521-1.341-.263.022-.6.034-.949.046-.554.02-1.165.042-1.771.11l.031-.087a3.24,3.24,0,0,1,3.042-2.14h.72a1.267,1.267,0,1,0,0-2.534h-.72A5.784,5.784,0,0,0,22.852,17.7l-1.89-2.648,1.86-4.507,8.2-2.875a1.268,1.268,0,0,0,.572-.406L35.237,2.69A29.883,29.883,0,0,1,58.34,17.5a29.571,29.571,0,0,1,2.986,7.253l-.537.479a3.385,3.385,0,0,0-1.128,2.462c0,.01,0,.02,0,.031l-.875-2.407a3.164,3.164,0,0,0-.571-.979L56.654,22.51A3.176,3.176,0,0,0,54.236,21.4H52.325A1.835,1.835,0,0,0,50.8,24.248l.193.29a14.044,14.044,0,0,1-4.184,2.485l-2.619-5.017V20.887a1.266,1.266,0,0,0-.392-.916l-2.359-2.252a1.269,1.269,0,0,0-.455-.279l-2.123-.746a1.267,1.267,0,0,0-.84,2.391l1.866.656,1.769,1.689v.888a1.267,1.267,0,0,0,.144.586l3.279,6.281a1.267,1.267,0,0,0,1.562.6l.955-.352A16.583,16.583,0,0,0,53.54,25.63a1.267,1.267,0,0,0,.158-1.6l-.067-.1h.605a.645.645,0,0,1,.491.226l1.561,1.828a.644.644,0,0,1,.116.2l1.723,4.737a1.267,1.267,0,0,0,2.087.463l.82-.82a3.956,3.956,0,0,0,1.048-1.905A30.007,30.007,0,0,1,50.94,55.946,1.267,1.267,0,0,0,52.5,57.94a32.439,32.439,0,0,0,8.03-41.708ZM5.992,35.831,11.217,39.8a1.266,1.266,0,0,0,.524.235l3.149.615a1.408,1.408,0,0,1,1.068,1.821,3.917,3.917,0,0,0,0,2.447l.4,1.235a1.41,1.41,0,0,1-.9,1.774l-1.259.409a1.267,1.267,0,0,0-.853.967L12.327,54.6a30.233,30.233,0,0,1-5.772-7.2A29.741,29.741,0,0,1,2.873,36.845ZM13.377,15.62l-1.491,1.6a1.272,1.272,0,0,0-.173.235l-3.385,5.91L5.32,25.513a1.267,1.267,0,0,0-.31,1.745l1.125,1.65c-.649.1-1.231.176-1.618.218-.074-.071-.152-.144-.233-.218-.3-.28-.72-.654-1.344-1.2a29.951,29.951,0,0,1,8.925-16.95,3.3,3.3,0,0,1,2.053,1.88A2.812,2.812,0,0,1,13.377,15.62Zm10.332,6.924a8.126,8.126,0,0,1,2.835-.4c.384-.014.747-.026,1.07-.054a3.447,3.447,0,0,1,.54,0,1.267,1.267,0,0,0,.583,1.577c.238.127.569.348.919.581a7.3,7.3,0,0,0,3.168,1.476,2.1,2.1,0,0,0,1.721-.717c.018-.019.035-.037.054-.054a1.358,1.358,0,0,0,.339-.415c.2.058.416.116.634.175a8.438,8.438,0,0,1,2.456.908,8.995,8.995,0,0,1,1.352,2.663c.19.493.37.958.572,1.39.087.185.172.376.259.569a7.913,7.913,0,0,0,2.653,3.7,5.238,5.238,0,0,0,2.109.642l.276.043a12.253,12.253,0,0,1-1.608,1.687c-1.569,1.461-3.521,3.279-2.622,6.18.424,1.37.444,1.518-.238,2.26-.093.1-.18.194-.261.28a5.207,5.207,0,0,0-1.428,2.317,1.978,1.978,0,0,1-.516.806,5.658,5.658,0,0,0-.709.939,4.107,4.107,0,0,0-.459,1.346,1.551,1.551,0,0,1-.265.743,7.387,7.387,0,0,1-1.6,1.415,2.091,2.091,0,0,1-1.062.423,9.04,9.04,0,0,1-1.365-2.976c-.182-.542-.436-1.1-.68-1.639-.54-1.189-1.1-2.418-.826-3.258l.095-.291a5.536,5.536,0,0,0,.085-4.387,4.57,4.57,0,0,0-.923-1.315,2.356,2.356,0,0,1-.484-.643,2.739,2.739,0,0,1-.042-.641,3.143,3.143,0,0,0-.984-2.594,4.082,4.082,0,0,0-4.12-.641,7.951,7.951,0,0,1-.925.193,4.552,4.552,0,0,1-4.362-1.844,5.017,5.017,0,0,1-.393-5.072A9.621,9.621,0,0,1,21.2,25.695c.147-.166.3-.333.444-.5.247-.285.519-.671.807-1.079A9.161,9.161,0,0,1,23.709,22.545Z" transform="translate(0 -0.001)"/>
</svg>
