<?xml version="1.0" encoding="utf-8"?>
<!-- Generator: Adobe Illustrator 22.1.0, SVG Export Plug-In . SVG Version: 6.00 Build 0)  -->
<svg version="1.1" id="Layer_1" xmlns="http://www.w3.org/2000/svg" xmlns:xlink="http://www.w3.org/1999/xlink" x="0px" y="0px"
	 viewBox="0 0 64 100.3" style="enable-background:new 0 0 64 100.3;" xml:space="preserve">
<style type="text/css">
	.st0{fill:#E3E3E3;}
	.st1{fill:#FFFFFF;}
	.st2{fill:#FFFFFF;stroke:#000000;stroke-linecap:round;stroke-linejoin:round;stroke-miterlimit:10;}
	.st3{fill:#A1DAF8;}
	.st4{fill:none;stroke:#000000;stroke-linecap:round;stroke-linejoin:round;stroke-miterlimit:10;}
	.st5{enable-background:new    ;}
	.st6{fill:#4D6B89;}
	.st7{font-family:'Roboto-Regular';}
	.st8{font-size:7.75px;}
	.st9{fill:#1D1D1B;}
	.st10{font-family:'Roboto-Bold';}
	.st11{fill:#EAEAEA;}
	.st12{fill:#A0D9F7;}
	
		.st13{fill-rule:evenodd;clip-rule:evenodd;fill:none;stroke:#1D1D1B;stroke-linecap:round;stroke-linejoin:round;stroke-miterlimit:10;}
</style>
<text transform="matrix(1 0 0 1 2.136230e-04 74)"><tspan x="0" y="0" class="st6 st7 st8">05</tspan><tspan x="0" y="8" class="st9 st10 st8">Healthy Ocean</tspan></text>
<g>
	<rect x="0.1" y="0" class="st11" width="63.9" height="64"/>
</g>
<g>
	<g>
		<path class="st12" d="M24.3,33.1c0.1-2.2,1.3-10.3,10.6-10.6C34.7,24.6,33.5,32.8,24.3,33.1z"/>
	</g>
	<g>
		<path class="st9" d="M34.3,23c-0.3,2.6-1.8,9-9.5,9.5C25.1,30,26.6,23.6,34.3,23 M35.4,22c-11.6,0-11.6,11.6-11.6,11.6
			C35.4,33.6,35.4,22,35.4,22L35.4,22z"/>
	</g>
</g>
<g>
	<g>
		<path class="st12" d="M19.1,33.1C9.8,32.8,8.7,24.6,8.5,22.5C17.8,22.8,18.9,30.9,19.1,33.1z"/>
	</g>
	<g>
		<path class="st9" d="M9.1,23c7.7,0.5,9.2,7,9.5,9.5C10.9,32,9.4,25.6,9.1,23 M8,22c0,0,0,11.6,11.6,11.6C19.6,33.6,19.6,22,8,22
			L8,22z"/>
	</g>
</g>
<g>
	<g>
		<path class="st12" d="M21.7,28.1c-1.5-2-6.9-10-0.1-17.3C23.1,12.7,28.5,20.8,21.7,28.1z"/>
	</g>
	<g>
		<path class="st9" d="M21.6,11.6c0.7,1,1.7,2.7,2.4,4.9c1.2,4,0.5,7.7-2.2,10.8c-0.7-1-1.7-2.7-2.4-4.9
			C18.2,18.3,18.9,14.7,21.6,11.6 M21.7,10c-8.7,8.7,0,18.8,0,18.8C30.4,20.1,21.7,10,21.7,10L21.7,10z"/>
	</g>
</g>
<g>
	<g>
		<g>
			<circle class="st1" cx="44" cy="34.1" r="3.5"/>
		</g>
		<g>
			<path class="st9" d="M44,31.1c1.7,0,3,1.3,3,3s-1.3,3-3,3s-3-1.3-3-3S42.3,31.1,44,31.1 M44,30.1c-2.2,0-4,1.8-4,4
				c0,2.2,1.8,4,4,4s4-1.8,4-4C48,31.9,46.2,30.1,44,30.1L44,30.1z"/>
		</g>
	</g>
	<g>
		<g>
			<path class="st1" d="M37.9,42.5c-0.2,0-0.2-0.1-0.3-0.2c0-0.1-0.1-0.2,0.1-0.3l2.5-2.5H52c0.8,0,1.5,0.7,1.5,1.5
				s-0.7,1.5-1.5,1.5H37.9z"/>
		</g>
		<g>
			<path class="st9" d="M52,40c0.6,0,1,0.4,1,1s-0.4,1-1,1H38.4l2-2H52 M52,39H40l-2.7,2.7c-0.5,0.5-0.1,1.3,0.5,1.3H52
				c1.1,0,2-0.9,2-2S53.1,39,52,39L52,39z"/>
		</g>
	</g>
	<g>
		<g>
			<path class="st1" d="M31.7,43.9c-0.6,0-1.1-0.2-1.5-0.6c-0.8-0.8-0.8-2.2,0-3.1l4.7-4.7c0.4-0.4,0.9-0.6,1.5-0.6
				c0.6,0,1.1,0.2,1.5,0.6s0.6,0.9,0.6,1.5s-0.2,1.1-0.6,1.5l-4.7,4.7C32.8,43.7,32.2,43.9,31.7,43.9z"/>
		</g>
		<g>
			<path class="st9" d="M36.3,35.4c0.4,0,0.8,0.2,1.2,0.5c0.6,0.6,0.6,1.7,0,2.3l-4.7,4.7c-0.3,0.3-0.7,0.5-1.2,0.5
				c-0.4,0-0.8-0.2-1.2-0.5c-0.6-0.6-0.6-1.7,0-2.3l4.7-4.7C35.5,35.6,35.9,35.4,36.3,35.4 M36.3,34.4c-0.7,0-1.4,0.3-1.9,0.8
				l-4.7,4.7c-1,1-1,2.7,0,3.8c0.5,0.5,1.2,0.8,1.9,0.8c0.7,0,1.4-0.3,1.9-0.8l4.7-4.7c1-1,1-2.7,0-3.8
				C37.7,34.7,37.1,34.4,36.3,34.4L36.3,34.4z"/>
		</g>
	</g>
	<g>
		<path class="st1" d="M52.4,33.6l4-4c0.6-0.6,0.6-1.4,0-2l0,0c-0.6-0.6-1.4-0.6-2,0l-4,4c-0.6,0.6-0.6,1.4,0,2l0,0
			C51,34.1,51.9,34.1,52.4,33.6z"/>
		<path class="st9" d="M51.4,34.5c-0.5,0-1-0.2-1.4-0.6c-0.7-0.7-0.7-2,0-2.7l4-4c0.7-0.7,2-0.7,2.7,0c0.4,0.4,0.6,0.8,0.6,1.4
			s-0.2,1-0.6,1.4l-4,4C52.4,34.3,51.9,34.5,51.4,34.5z M55.4,27.7c-0.2,0-0.5,0.1-0.6,0.3l-4,4c-0.4,0.4-0.4,0.9,0,1.3
			c0.3,0.3,0.9,0.3,1.3,0l0,0l4-4c0.2-0.2,0.3-0.4,0.3-0.6s-0.1-0.5-0.3-0.6S55.7,27.7,55.4,27.7z"/>
	</g>
	<g>
		<polygon class="st1" points="42,44 36,50 20,50 20,46 32,46 34,44 		"/>
		<path class="st9" d="M36,50.5H20c-0.3,0-0.5-0.2-0.5-0.5v-4c0-0.3,0.2-0.5,0.5-0.5h11.8l1.9-1.9c0.1-0.1,0.2-0.1,0.4-0.1h8
			c0.2,0,0.4,0.1,0.5,0.3s0,0.4-0.1,0.5l-6,6C36.3,50.4,36.1,50.5,36,50.5z M20.5,49.5h15.3l5-5h-6.6l-1.9,1.9
			c-0.1,0.1-0.2,0.1-0.4,0.1H20.5V49.5z"/>
	</g>
	<g>
		<polygon class="st1" points="18,46 12,52 14,54 18,50 		"/>
		<path class="st9" d="M14,54.5c-0.1,0-0.3,0-0.4-0.1l-2-2c-0.2-0.2-0.2-0.5,0-0.7l6-6c0.1-0.1,0.4-0.2,0.5-0.1
			c0.2,0.1,0.3,0.3,0.3,0.5v4c0,0.1-0.1,0.3-0.1,0.4l-4,4C14.3,54.5,14.1,54.5,14,54.5z M12.7,52l1.3,1.3l3.5-3.5v-2.6L12.7,52z"/>
	</g>
	<g>
		<circle class="st1" cx="47.8" cy="26.2" r="1"/>
		<path class="st9" d="M47.8,27.7c-0.8,0-1.5-0.7-1.5-1.5s0.7-1.5,1.5-1.5s1.5,0.7,1.5,1.5S48.7,27.7,47.8,27.7z M47.8,25.7
			c-0.3,0-0.5,0.2-0.5,0.5s0.2,0.5,0.5,0.5s0.5-0.2,0.5-0.5S48.1,25.7,47.8,25.7z"/>
	</g>
	<g>
		<circle class="st1" cx="53.8" cy="22.2" r="1"/>
		<path class="st9" d="M53.8,23.7c-0.8,0-1.5-0.7-1.5-1.5s0.7-1.5,1.5-1.5s1.5,0.7,1.5,1.5S54.7,23.7,53.8,23.7z M53.8,21.7
			c-0.3,0-0.5,0.2-0.5,0.5s0.2,0.5,0.5,0.5s0.5-0.2,0.5-0.5S54.1,21.7,53.8,21.7z"/>
	</g>
	<g>
		<circle class="st1" cx="49.8" cy="18.2" r="1"/>
		<path class="st9" d="M49.8,19.7c-0.8,0-1.5-0.7-1.5-1.5s0.7-1.5,1.5-1.5s1.5,0.7,1.5,1.5S50.7,19.7,49.8,19.7z M49.8,17.7
			c-0.3,0-0.5,0.2-0.5,0.5s0.2,0.5,0.5,0.5s0.5-0.2,0.5-0.5S50.1,17.7,49.8,17.7z"/>
	</g>
</g>
<g>
	<path class="st9" d="M21.7,38.5c-0.3,0-0.5-0.2-0.5-0.5v-6c0-0.3,0.2-0.5,0.5-0.5s0.5,0.2,0.5,0.5v6C22.2,38.3,22,38.5,21.7,38.5z"
		/>
</g>
</svg>
