<svg xmlns="http://www.w3.org/2000/svg" width="42.51" height="56.443" viewBox="0 0 42.51 56.443"><g transform="translate(4.75)"><path d="M161.73,159.7a6.1,6.1,0,1,0-6.1-6.093A6.1,6.1,0,0,0,161.73,159.7Zm0-9.836a3.743,3.743,0,1,1-3.743,3.743A3.743,3.743,0,0,1,161.73,149.862Zm0,0" transform="translate(-145.225 -133.566)"/><path d="M122.181,311.387h16.39a1.183,1.183,0,0,0,1.181-1.181,9.794,9.794,0,0,0-2.739-6.931,9.323,9.323,0,0,0-13.273,0,9.794,9.794,0,0,0-2.74,6.931A1.184,1.184,0,0,0,122.181,311.387Zm3.247-6.459a6.956,6.956,0,0,1,9.895,0,7.259,7.259,0,0,1,1.984,4.1H123.444A7.221,7.221,0,0,1,125.428,304.928Zm0,0" transform="translate(-113.871 -272.113)"/><path d="M31.856,4.015H21.228V1.181A1.184,1.184,0,0,0,20.047,0H12.962a1.184,1.184,0,0,0-1.181,1.181V4.015H1.154a5.907,5.907,0,0,0-5.9,5.9V50.54a5.907,5.907,0,0,0,5.9,5.9h30.7a5.907,5.907,0,0,0,5.9-5.9V9.919A5.907,5.907,0,0,0,31.856,4.015ZM14.143,2.362h4.723V7.085H14.143ZM35.4,50.54a3.553,3.553,0,0,1-3.542,3.542H1.154A3.553,3.553,0,0,1-2.388,50.54V9.919A3.553,3.553,0,0,1,1.154,6.376H11.782V8.266a1.184,1.184,0,0,0,1.181,1.181h7.085a1.184,1.184,0,0,0,1.181-1.181V6.376H31.856A3.553,3.553,0,0,1,35.4,9.919Zm0,0"/><path d="M99.234,505H73.681a1.181,1.181,0,0,0,0,2.362H99.246A1.181,1.181,0,0,0,99.234,505Zm0,0" transform="translate(-69.952 -457.294)"/><path d="M136.181,450a1.181,1.181,0,0,0,0,2.362h13.757a1.181,1.181,0,0,0,0-2.362Zm0,0" transform="translate(-126.548 -407.49)"/></g></svg>