<svg xmlns="http://www.w3.org/2000/svg" width="212" height="212"><defs><clipPath id="a"><circle cx="106" cy="106" r="106" fill="#44bad3"/></clipPath></defs><g data-name="Group 122"><g data-name="AR Impact icons_Protected areas"><g data-name="Mask Group 3" clip-path="url(#a)"><g data-name="AR Impact icons_Safeguard"><circle cx="106" cy="106" r="106" fill="#44bad3"/><path data-name="Path 412" d="M118.434 116.647l3.151-3.627c1.573-1.81 3.091-3.672 4.734-5.416a7.388 7.388 0 015.948-2.247.9.9 0 01.755 1.352q-1.01 2.31-2.03 4.617c-1.48 3.359-2.93 6.731-4.448 10.072a11.384 11.384 0 01-7.959 6.6 46.989 46.989 0 00-4.839 1.8c-1.378.513-2.7 1.168-4.125 1.561a14.062 14.062 0 01-9.682-.756c-2.974-1.31-5.95-2.617-8.95-3.866a28.293 28.293 0 00-7.41-1.949c-1.278-.159-2.561-.281-3.841-.418a.886.886 0 01-.858-.912v-8.59a.92.92 0 01.228-.615 13.617 13.617 0 018.941-5.178 12.829 12.829 0 014.984.532 35.753 35.753 0 018.886 3.936 8.731 8.731 0 003.956 1.165c.264.018.356-.057.388-.337a49.438 49.438 0 00.233-7.771 32.467 32.467 0 00-2.696-12.563c-.393-.84-.394-.823-1.308-.669a10.317 10.317 0 01-5.512-.328 7.813 7.813 0 01-4.707-5.26 19.353 19.353 0 01-.741-6.693.88.88 0 01.89-.929 22.348 22.348 0 015.81.4 12.953 12.953 0 014.552 1.671 6.064 6.064 0 013.087 5.231 9.6 9.6 0 01-.937 4.148.821.821 0 00.032.821 26.679 26.679 0 012.708 8.179 39.739 39.739 0 01.542 4.6c.242-.537.437-.966.63-1.4.033-.074-.027-.128-.05-.192a9.213 9.213 0 01.057-7.118 6.94 6.94 0 014.215-3.7 13.911 13.911 0 014.112-.767 23.223 23.223 0 012.436.006.882.882 0 01.97.832 11.451 11.451 0 01-.041 2.642 17.486 17.486 0 01-.827 4.446 7.862 7.862 0 01-2.927 4.3 5.862 5.862 0 01-4.765.716 8.639 8.639 0 01-1.13-.324c-.277-.1-.408-.076-.543.216a26.451 26.451 0 00-1.826 5.795 31.291 31.291 0 00-.438 3.71c-.027.334.081.4.389.4 2.218-.009 4.436-.013 6.653.006a3.846 3.846 0 013.149 1.664zm12.3-9.387a5.288 5.288 0 00-3.4 1.841c-2.692 3.067-5.349 6.166-8.025 9.247a1.08 1.08 0 00-.284.671 3.94 3.94 0 01-3.87 3.752c-3.691.045-7.383.031-11.074.02a15.766 15.766 0 00-4.933.658c-.192.062-.31.05-.379-.165a28.932 28.932 0 00-.406-1.148c-.081-.218-.026-.313.21-.387a15.024 15.024 0 014.42-.725c3.916-.019 7.833-.006 11.749-.008a3.549 3.549 0 00.67-.04 2.236 2.236 0 00-.464-4.433c-2.779 0-5.559.011-8.338-.005a11.274 11.274 0 01-5.887-1.605 32.147 32.147 0 00-8.085-3.569 10.814 10.814 0 00-4.936-.418 12.382 12.382 0 00-6.907 4.062.515.515 0 00-.155.373q.006 3.516 0 7.032c0 .184.045.273.254.292.781.07 1.56.159 2.34.245a30.334 30.334 0 017.3 1.714c3.454 1.289 6.787 2.869 10.167 4.334a12.232 12.232 0 008.612.6c1.4-.416 2.71-1.062 4.074-1.571a38.785 38.785 0 014.56-1.7 9.834 9.834 0 007.083-5.9q2.167-4.924 4.33-9.849c.478-1.089.94-2.185 1.409-3.278.016-.016.048-.044.046-.047-.027-.053-.054-.028-.077.007zm-27.168-17.076a7.077 7.077 0 00.381-1.368 4.575 4.575 0 00-.8-3.94 5.49 5.49 0 00-1.958-1.494 17.735 17.735 0 00-7.61-1.469c-.273 0-.284.145-.282.347a16.772 16.772 0 00.612 4.776 6.278 6.278 0 003.135 4.08 8 8 0 005.094.5c.253-.043.1-.172.04-.262a11.192 11.192 0 00-1.111-1.317 11.4 11.4 0 00-3.516-2.485.959.959 0 01-.642-.72.844.844 0 01.321-.861.948.948 0 011.034-.062 13.194 13.194 0 014.436 3.271c.275.314.546.633.866 1.004zm6.5 11.414a19.157 19.157 0 011.653-2.225 12.516 12.516 0 012.756-2.453.886.886 0 011.416.6.918.918 0 01-.5.934 14.005 14.005 0 00-3.876 4.265c-.085.135-.148.224.078.295a5.771 5.771 0 003.017.273 4.1 4.1 0 002.794-2.419 16.057 16.057 0 001.427-6.776c.01-.3-.162-.291-.373-.3a14.742 14.742 0 00-3.674.355 6.325 6.325 0 00-3.583 1.974c-1.326 1.579-1.428 3.431-1.137 5.479z" fill="#fff"/><path data-name="Path 413" d="M153.79 68.15l-.08-.02-.07-.03c-15.59-6.87-31.4-13.9-47.01-20.9a1.5 1.5 0 00-.69-.17 1.67 1.67 0 00-.73.18C89.78 54.09 74.02 61.09 58.3 68.05a.814.814 0 00-.54.9l.01.08v31.21a68.192 68.192 0 0014.79 42.57 61.127 61.127 0 0031.48 21.85 6.658 6.658 0 001.98.31 6.534 6.534 0 002-.32c13.03-3.92 24.03-11.81 32.69-23.47a68.04 68.04 0 0012.63-29.89 69.453 69.453 0 00.83-10.3c.07-5.92.06-11.96.05-17.8 0-4.75-.01-9.5.02-14.24v-.06l.01-.06a.624.624 0 00-.46-.68zm-5.85 7.12v26.55a59.3 59.3 0 01-.72 8.83 58.311 58.311 0 01-10.82 25.6 53.857 53.857 0 01-28.09 20.16 7.24 7.24 0 01-2.21.35 7.316 7.316 0 01-2.19-.34 52.607 52.607 0 01-27.02-18.75 58.3 58.3 0 01-12.8-36.46V74.36h.23a2.508 2.508 0 011.57-1.59q19.395-8.595 38.76-17.25a3.058 3.058 0 011.39-.33 3.012 3.012 0 011.35.31q19.455 8.685 38.93 17.3a2.339 2.339 0 011.62 2.47z" fill="#fff"/></g></g></g></g></svg>