<svg xmlns="http://www.w3.org/2000/svg" xmlns:xlink="http://www.w3.org/1999/xlink" width="212" height="212" viewBox="0 0 212 212">
  <defs>
    <clipPath id="clip-path">
      <circle id="Ellipse_254" cx="106" cy="106" r="106" fill="#44bad3"/>
    </clipPath>
  </defs>
  <g id="Group_122" data-name="Group 122" transform="translate(-248 775)">
    <g id="AR_Impact_icons_Protected_areas" data-name="AR Impact icons_Protected areas" transform="translate(248 -775)">
      <g id="Mask_Group_1" data-name="Mask Group 1" clip-path="url(#clip-path)">
        <g id="AR_Impact_icons_Seagrass" data-name="AR Impact icons_Seagrass">
          <circle id="Ellipse_254_1_" cx="106" cy="106" r="106" fill="#44bad3"/>
          <g id="Group_123" data-name="Group 123">
            <path id="Path_395" data-name="Path 395" d="M73.576,154.225c-5.536-17.6-24.984-40.134-24.984-40.134A383.344,383.344,0,0,1,64.261,149.54c1.958,5.044,3.685,10.192,5.127,15.3l.178.632h6.509l-.146-1a66.78,66.78,0,0,0-2.353-10.251" fill="#fff"/>
            <path id="Path_396" data-name="Path 396" d="M108.609,121.613a193.748,193.748,0,0,1,3.742,36.869c-.022,1.908-.058,3.96-.114,6.1l-.024.892h5.692l.059-.806c.106-1.462.164-2.806.175-4,.113-13.168-9.53-39.057-9.53-39.057" fill="#fff"/>
            <path id="Path_397" data-name="Path 397" d="M156.551,84.816s-13.11,15.431-17,36.425a116.332,116.332,0,0,0-1.959,15.779c-.024.508-.051,1.015-.078,1.518a50.055,50.055,0,0,0-3.968-15.862c-8.63-18.33-22.008-31.254-28.894-35.469-.645-.393-1.145-.377-1.485.043-.553.684-.354.9,2.135,3.539,4.723,5.012,16.264,16.538,22.055,30.021,7.465,17.383,1.593,42.771,1.166,43.129l-.131.111c.64-3.537-.086-11.389-3.752-24.687C118.144,115.811,99.211,96.2,99.211,96.2c.171.346,17.284,34.706,20.406,42.778,2.555,6.625,2.076,21.255,1.869,25.581l-.042.911h15.514l.087-.77c.165-1.444,4.124-20.19,5.171-29.807a158.588,158.588,0,0,1,14.2-49.81Z" fill="#fff"/>
            <path id="Path_398" data-name="Path 398" d="M70.424,123.559c-3.666-15.686,1.619-26.74,1.672-26.849,0,0-13.64,17.879-.326,49.685,5.278,12.6,9.463,17.378,11.017,18.842l.251.237h3.877l-.6-1.25c-2.067-4.276-12.54-26.333-15.888-40.666" fill="#fff"/>
            <path id="Path_399" data-name="Path 399" d="M99.929,165.474h2.48L102,164.314c-.951-2.681-3.414-9.869-5.982-19.294,1.545,2.611,2.737,4.628,3.306,5.589,2.608,4.413,4.2,13.165,4.377,14.146l.126.719h8.057l.045-.622a45.856,45.856,0,0,0-1.978-15.236c-2.422-7.8-10.824-27.694-10.91-27.892l-1.63-3.852-.042,4.18c0,.273-.009,6.747,4.86,19.044,1.107,2.794,2.125,5.562,3.04,8.179-.208-.375-.417-.75-.641-1.132-2.443-4.187-7.291-11.007-12.129-17.557-2.428-11.361-4.273-23.979-3.985-35.383A78.559,78.559,0,0,1,94.22,66.648a59.443,59.443,0,0,1,7.8-12.441S82.466,61.4,84.271,108.513a101.868,101.868,0,0,0,1.353,12.912,35.493,35.493,0,0,0-8.2-7.815s4.826,8.151,9.983,16.864c1,4.533,2.148,9.092,3.3,13.365-6.889-10.865-17.515-19.867-17.515-19.867a305.861,305.861,0,0,1,16.059,29.676c1.74,3.638,3.367,7.43,4.833,11.264l.212.56h5.632Z" fill="#fff"/>
          </g>
          <g id="Group_124" data-name="Group 124">
            <circle id="Ellipse_255" data-name="Ellipse 255" cx="30.06" cy="30.06" r="30.06" transform="translate(119.877 49.473)" fill="#44bad3"/>
            <path id="Path_400" data-name="Path 400" d="M165.832,63.638a22.479,22.479,0,1,0,0,31.79A22.488,22.488,0,0,0,165.832,63.638Zm-5.686,17.168a1.891,1.891,0,0,1-1.3.542h-7.04v7.04a1.849,1.849,0,0,1-1.841,1.841,1.826,1.826,0,0,1-1.841-1.841v-7.04h-7.04a1.841,1.841,0,0,1,0-3.683h7.04v-7.04a1.826,1.826,0,0,1,1.841-1.841h0a1.826,1.826,0,0,1,1.841,1.841v7.04h7.04a1.826,1.826,0,0,1,1.841,1.841A2.173,2.173,0,0,1,160.146,80.805Z" fill="#fff"/>
          </g>
          <g id="Group_128" data-name="Group 128">
            <g id="Group_125" data-name="Group 125">
              <path id="Path_401" data-name="Path 401" d="M71.082,89.448a3.373,3.373,0,0,1-3.652,3.331,7.219,7.219,0,0,1-6.223-4.214c-1.362-3.229.751-5.82,4.469-5.015C68.841,84.234,71.082,87.06,71.082,89.448Z" fill="#fff" opacity="0.5"/>
              <path id="Path_402" data-name="Path 402" d="M57.943,77.6a5.016,5.016,0,0,1-3.256,1.278c-1.256,0-2.258-.634-2.043-1.661.3-1.455,2.648-2.74,4.658-2.305C58.949,75.269,58.978,76.591,57.943,77.6Z" fill="#fff" opacity="0.5"/>
              <path id="Path_403" data-name="Path 403" d="M64.438,72.155a1.21,1.21,0,0,1-.573-1.678,2.59,2.59,0,0,1,2.278-1.444c1.257.015,1.807,1.08,1.01,2.188A2.42,2.42,0,0,1,64.438,72.155Z" fill="#fff" opacity="0.5"/>
              <path id="Path_404" data-name="Path 404" d="M58.021,66.724a.632.632,0,0,1-.3-.877,1.353,1.353,0,0,1,1.19-.754c.657.008.944.564.527,1.143A1.264,1.264,0,0,1,58.021,66.724Z" fill="#fff" opacity="0.5"/>
              <path id="Path_405" data-name="Path 405" d="M61.394,62.852a.632.632,0,0,1,.2-.9A1.353,1.353,0,0,1,63,61.925c.556.349.511.974-.146,1.25A1.264,1.264,0,0,1,61.394,62.852Z" fill="#fff" opacity="0.5"/>
            </g>
            <g id="Group_126" data-name="Group 126">
              <path id="Path_406" data-name="Path 406" d="M99.392,112.021a1.887,1.887,0,0,0,2.632-.856,3.748,3.748,0,0,0-1.037-3.966c-1.515-1.453-3.408-1.126-3.745.809A3.957,3.957,0,0,0,99.392,112.021Z" fill="#fff" opacity="0.5"/>
              <path id="Path_407" data-name="Path 407" d="M93.705,102.059a2.349,2.349,0,0,0,1.4-1.192c.266-.585.123-1.212-.5-1.372a2.042,2.042,0,0,0-2.272,1.584C92.19,101.937,92.923,102.285,93.705,102.059Z" fill="#fff" opacity="0.5"/>
              <path id="Path_408" data-name="Path 408" d="M95.442,106.668a.81.81,0,0,0-.816-.692,1.333,1.333,0,0,0-1.288.694c-.258.589.221,1.115,1.008,1.025A1.132,1.132,0,0,0,95.442,106.668Z" fill="#fff" opacity="0.5"/>
            </g>
            <g id="Group_127" data-name="Group 127">
              <path id="Path_409" data-name="Path 409" d="M56.152,97.894a1.887,1.887,0,0,0-2.3,1.538,3.748,3.748,0,0,0,2.074,3.536c1.853.987,3.586.159,3.385-1.794A3.957,3.957,0,0,0,56.152,97.894Z" fill="#fff" opacity="0.5"/>
              <path id="Path_410" data-name="Path 410" d="M64.328,105.939a2.349,2.349,0,0,0-1.026,1.528c-.1.635.21,1.2.849,1.186a2.042,2.042,0,0,0,1.757-2.141C65.819,105.647,65.02,105.51,64.328,105.939Z" fill="#fff" opacity="0.5"/>
              <path id="Path_411" data-name="Path 411" d="M61.406,101.974a.81.81,0,0,0,.973.445A1.333,1.333,0,0,0,63.43,101.4c.088-.637-.516-1.013-1.249-.713A1.132,1.132,0,0,0,61.406,101.974Z" fill="#fff" opacity="0.5"/>
            </g>
          </g>
        </g>
      </g>
    </g>
  </g>
</svg>
