<svg xmlns="http://www.w3.org/2000/svg" xmlns:xlink="http://www.w3.org/1999/xlink" width="212" height="212" viewBox="0 0 212 212">
  <defs>
    <clipPath id="clip-path">
      <circle id="Ellipse_254" cx="106" cy="106" r="106" fill="#44bad3"/>
    </clipPath>
  </defs>
  <g id="Group_122" data-name="Group 122" transform="translate(-248 775)">
    <g id="AR_Impact_icons_Protected_areas" data-name="AR Impact icons_Protected areas" transform="translate(248 -775)">
      <g id="Mask_Group_3" data-name="Mask Group 3" clip-path="url(#clip-path)">
        <g id="AR_Impact_icons_Safeguard" data-name="AR Impact icons_Safeguard">
          <circle id="Ellipse_254_3_" cx="106" cy="106" r="106" fill="#44bad3"/>
          <path id="Path_412" data-name="Path 412" d="M118.434,116.647l3.151-3.627c1.573-1.81,3.091-3.672,4.734-5.416a7.388,7.388,0,0,1,5.948-2.247.9.9,0,0,1,.755,1.352q-1.01,2.31-2.03,4.617c-1.48,3.359-2.93,6.731-4.448,10.072a11.384,11.384,0,0,1-7.959,6.6,46.989,46.989,0,0,0-4.839,1.8c-1.378.513-2.7,1.168-4.125,1.561a14.062,14.062,0,0,1-9.682-.756c-2.974-1.31-5.95-2.617-8.95-3.866a28.293,28.293,0,0,0-7.41-1.949c-1.278-.159-2.561-.281-3.841-.418a.886.886,0,0,1-.858-.912c0-2.863,0-5.726,0-8.59a.92.92,0,0,1,.228-.615,13.617,13.617,0,0,1,8.941-5.178,12.829,12.829,0,0,1,4.984.532,35.753,35.753,0,0,1,8.886,3.936,8.731,8.731,0,0,0,3.956,1.165c.264.018.356-.057.388-.337a49.438,49.438,0,0,0,.233-7.771A32.467,32.467,0,0,0,103.8,94.037c-.393-.84-.394-.823-1.308-.669a10.317,10.317,0,0,1-5.512-.328,7.813,7.813,0,0,1-4.707-5.26,19.353,19.353,0,0,1-.741-6.693.88.88,0,0,1,.89-.929,22.348,22.348,0,0,1,5.81.4,12.953,12.953,0,0,1,4.552,1.671,6.064,6.064,0,0,1,3.087,5.231,9.6,9.6,0,0,1-.937,4.148.821.821,0,0,0,.032.821,26.679,26.679,0,0,1,2.708,8.179,39.739,39.739,0,0,1,.542,4.6c.242-.537.437-.966.63-1.4.033-.074-.027-.128-.05-.192a9.213,9.213,0,0,1,.057-7.118,6.94,6.94,0,0,1,4.215-3.7,13.911,13.911,0,0,1,4.112-.767,23.223,23.223,0,0,1,2.436.006.882.882,0,0,1,.97.832,11.451,11.451,0,0,1-.041,2.642,17.486,17.486,0,0,1-.827,4.446,7.862,7.862,0,0,1-2.927,4.3,5.862,5.862,0,0,1-4.765.716,8.639,8.639,0,0,1-1.13-.324c-.277-.1-.408-.076-.543.216a26.451,26.451,0,0,0-1.826,5.795,31.291,31.291,0,0,0-.438,3.71c-.027.334.081.4.389.4,2.218-.009,4.436-.013,6.653.006a3.846,3.846,0,0,1,3.149,1.664Zm12.3-9.387a5.288,5.288,0,0,0-3.4,1.841c-2.692,3.067-5.349,6.166-8.025,9.247a1.08,1.08,0,0,0-.284.671,3.94,3.94,0,0,1-3.87,3.752c-3.691.045-7.383.031-11.074.02a15.766,15.766,0,0,0-4.933.658c-.192.062-.31.05-.379-.165-.125-.386-.265-.768-.406-1.148-.081-.218-.026-.313.21-.387a15.024,15.024,0,0,1,4.42-.725c3.916-.019,7.833-.006,11.749-.008a3.549,3.549,0,0,0,.67-.04,2.236,2.236,0,0,0-.464-4.433c-2.779,0-5.559.011-8.338-.005a11.274,11.274,0,0,1-5.887-1.605,32.147,32.147,0,0,0-8.085-3.569,10.814,10.814,0,0,0-4.936-.418,12.382,12.382,0,0,0-6.907,4.062.515.515,0,0,0-.155.373q.006,3.516,0,7.032c0,.184.045.273.254.292.781.07,1.56.159,2.34.245a30.334,30.334,0,0,1,7.3,1.714c3.454,1.289,6.787,2.869,10.167,4.334a12.232,12.232,0,0,0,8.612.6c1.4-.416,2.71-1.062,4.074-1.571a38.785,38.785,0,0,1,4.56-1.7,9.834,9.834,0,0,0,7.083-5.9q2.167-4.924,4.33-9.849c.478-1.089.94-2.185,1.409-3.278.016-.016.048-.044.046-.047C130.788,107.2,130.761,107.225,130.738,107.26ZM103.566,90.184a7.077,7.077,0,0,0,.381-1.368,4.575,4.575,0,0,0-.8-3.94,5.49,5.49,0,0,0-1.958-1.494,17.735,17.735,0,0,0-7.61-1.469c-.273,0-.284.145-.282.347a16.772,16.772,0,0,0,.612,4.776,6.278,6.278,0,0,0,3.135,4.08,8,8,0,0,0,5.094.5c.253-.043.1-.172.04-.262a11.192,11.192,0,0,0-1.111-1.317,11.4,11.4,0,0,0-3.516-2.485.959.959,0,0,1-.642-.72.844.844,0,0,1,.321-.861.948.948,0,0,1,1.034-.062A13.194,13.194,0,0,1,102.7,89.18C102.975,89.494,103.246,89.813,103.566,90.184Zm6.5,11.414a19.157,19.157,0,0,1,1.653-2.225,12.516,12.516,0,0,1,2.756-2.453.886.886,0,0,1,1.416.6.918.918,0,0,1-.5.934,14.005,14.005,0,0,0-3.876,4.265c-.085.135-.148.224.078.295a5.771,5.771,0,0,0,3.017.273,4.1,4.1,0,0,0,2.794-2.419,16.057,16.057,0,0,0,1.427-6.776c.01-.3-.162-.291-.373-.3a14.742,14.742,0,0,0-3.674.355,6.325,6.325,0,0,0-3.583,1.974C109.875,97.7,109.773,99.552,110.064,101.6Z" fill="#fff"/>
          <path id="Path_413" data-name="Path 413" d="M153.79,68.15l-.08-.02-.07-.03c-15.59-6.87-31.4-13.9-47.01-20.9a1.5,1.5,0,0,0-.69-.17,1.67,1.67,0,0,0-.73.18C89.78,54.09,74.02,61.09,58.3,68.05a.814.814,0,0,0-.54.9l.01.08v31.21a68.192,68.192,0,0,0,14.79,42.57,61.127,61.127,0,0,0,31.48,21.85,6.658,6.658,0,0,0,1.98.31,6.534,6.534,0,0,0,2-.32c13.03-3.92,24.03-11.81,32.69-23.47a68.04,68.04,0,0,0,12.63-29.89,69.453,69.453,0,0,0,.83-10.3c.07-5.92.06-11.96.05-17.8,0-4.75-.01-9.5.02-14.24v-.06l.01-.06A.624.624,0,0,0,153.79,68.15Zm-5.85,7.12v26.55a59.3,59.3,0,0,1-.72,8.83,58.311,58.311,0,0,1-10.82,25.6,53.857,53.857,0,0,1-28.09,20.16,7.24,7.24,0,0,1-2.21.35,7.316,7.316,0,0,1-2.19-.34,52.607,52.607,0,0,1-27.02-18.75,58.3,58.3,0,0,1-12.8-36.46V74.36h.23a2.508,2.508,0,0,1,1.57-1.59q19.395-8.595,38.76-17.25a3.058,3.058,0,0,1,1.39-.33,3.012,3.012,0,0,1,1.35.31q19.455,8.685,38.93,17.3A2.339,2.339,0,0,1,147.94,75.27Z" fill="#fff"/>
        </g>
      </g>
    </g>
  </g>
</svg>
