<svg xmlns="http://www.w3.org/2000/svg" width="212" height="212"><g data-name="Group 122"><g data-name="AR Impact icons_Protected areas"><circle cx="106" cy="106" r="106" fill="#44bad3"/><g fill="#fff"><path d="M105.995 46.032a45.269 45.269 0 00-45.215 45.22c0 24.355 41.963 72.033 43.749 74.051a1.968 1.968 0 002.778.171 1.924 1.924 0 00.171-.171c1.781-2.015 43.743-49.7 43.743-74.051a45.271 45.271 0 00-45.226-45.22zm0 112.417c-7.52-8.781-38.734-46.762-38.734-67.2.005-22.797 15.934-38.731 38.734-38.731s38.741 15.931 38.741 38.734c0 20.428-31.212 58.416-38.741 67.197z"/><path d="M105.995 59.794a29.492 29.492 0 1029.5 29.493 29.491 29.491 0 00-29.493-29.493z"/></g><path data-name="Path 394" d="M118.867 80.364a3.049 3.049 0 00-4.153-.029l-13.26 12.547-4.61-4.611a2.958 2.958 0 00-4.183 4.184l6.674 6.675a2.98 2.98 0 002.09.865 2.916 2.916 0 002.064-.84l15.377-14.608a2.961 2.961 0 00.001-4.183z" fill="#44bad3"/></g></g></svg>