<svg xmlns="http://www.w3.org/2000/svg" width="212" height="212" viewBox="0 0 212 212">
  <g id="Group_122" data-name="Group 122" transform="translate(-248 775)">
    <g id="AR_Impact_icons_Protected_areas" data-name="AR Impact icons_Protected areas" transform="translate(248 -775)">
      <circle id="Ellipse_254" cx="106" cy="106" r="106" fill="#44bad3"/>
      <g id="Group_119" transform="translate(-474 -272)">
        <g id="Group_118" transform="translate(241.05 -918.041)">
          <g id="Group_116" transform="translate(294.145 1233.735)">
            <path id="Path_391" d="M44.8,2.338A45.269,45.269,0,0,0-.415,47.558c0,24.355,41.963,72.033,43.749,74.051a1.968,1.968,0,0,0,2.778.171h0a1.924,1.924,0,0,0,.171-.171c1.781-2.015,43.743-49.7,43.743-74.051A45.271,45.271,0,0,0,44.8,2.338Zm0,112.417c-7.52-8.781-38.734-46.762-38.734-67.2C6.071,24.758,22,8.824,44.8,8.824S83.541,24.755,83.541,47.558C83.541,67.986,52.329,105.974,44.8,114.755Z" fill="#fff"/>
            <path id="Path_392" d="M44.8,16.1A29.492,29.492,0,1,0,74.3,45.593h0A29.491,29.491,0,0,0,44.807,16.1Z" fill="#fff"/>
          </g>
          <path id="Path_394" data-name="Path 394" d="M351.817,1270.405h0a3.049,3.049,0,0,0-4.153-.029l-13.26,12.547-4.61-4.611a2.958,2.958,0,0,0-4.183,4.184l6.674,6.675a2.98,2.98,0,0,0,2.09.865,2.916,2.916,0,0,0,2.064-.84l15.377-14.608A2.961,2.961,0,0,0,351.817,1270.405Z" fill="#44bad3"/>
        </g>
      </g>
    </g>
  </g>
</svg>
