<?xml version="1.0" encoding="utf-8"?>
<!-- Generator: Adobe Illustrator 22.1.0, SVG Export Plug-In . SVG Version: 6.00 Build 0)  -->
<svg version="1.1" id="Layer_1" xmlns="http://www.w3.org/2000/svg" xmlns:xlink="http://www.w3.org/1999/xlink" x="0px" y="0px"
	 viewBox="0 0 64 92" style="enable-background:new 0 0 64 92;" xml:space="preserve">
<style type="text/css">
	.st0{fill:#EAEAEA;}
	.st1{fill:#FFFFFF;}
	.st2{fill:#A0D9F7;}
	.st3{fill:none;stroke:#1D1D1B;stroke-linecap:round;stroke-linejoin:round;stroke-miterlimit:10;}
	.st4{fill:none;stroke:#1D1D1B;stroke-width:1.5;stroke-linecap:round;stroke-linejoin:round;stroke-miterlimit:10;}
	.st5{fill:#1D1D1B;}
	.st6{font-family:'Roboto', sans-serif;}
	.st7{font-size:7.75px;}
</style>
<g>
	<rect y="0" class="st0" width="64" height="64"/>
</g>
<rect x="8" y="24" class="st1" width="14" height="12"/>
<path class="st1" d="M38.7,48H28V36h14v8.7C42,46.5,40.5,48,38.7,48z"/>
<path class="st1" d="M44.7,26H34V14h14v8.7C48,24.5,46.5,26,44.7,26z"/>
<rect x="18" y="20" class="st1" width="10" height="12"/>
<rect x="38" y="32" class="st1" width="10" height="12"/>
<rect x="44" y="10" class="st1" width="10" height="12"/>
<polygon class="st2" points="44,44 44,32 38,32 42,36 42,44 "/>
<path class="st3" d="M42,36v8c0,2.2-1.1,4-2.5,4H28V36H42z"/>
<polygon class="st3" points="48,32 48,44 42,44 42,36 38,32 "/>
<line class="st4" x1="28" y1="58" x2="28" y2="36"/>
<line class="st3" x1="38" y1="32" x2="38" y2="36"/>
<polygon class="st2" points="50,22 50,10 44,10 48,14 48,22 "/>
<path class="st3" d="M48,14v8c0,2.2-1.1,4-2.5,4H34V14H48z"/>
<polygon class="st3" points="54,10 54,22 48,22 48,14 44,10 "/>
<line class="st4" x1="34" y1="30" x2="34" y2="14"/>
<line class="st3" x1="44" y1="10" x2="44" y2="14"/>
<polygon class="st2" points="24,32 24,20 18,20 22,24 22,32 "/>
<polyline class="st3" points="20,36 8,36 8,24 22,24 22,28 "/>
<polyline class="st3" points="22,32 22,24 18,20 28,20 28,32 "/>
<line class="st4" x1="8" y1="46" x2="8" y2="24"/>
<line class="st3" x1="18" y1="20" x2="18" y2="24"/>
<text transform="matrix(1 0 0 1 -2.441406e-04 73.9996)" class="st5 st6 st7">International  </text>
<text transform="matrix(1 0 0 1 -2.441406e-04 81.9996)" class="st5 st6 st7">Environmental  </text>
<text transform="matrix(1 0 0 1 -2.441406e-04 89.9996)" class="st5 st6 st7">Policy</text>
</svg>
