<svg xmlns="http://www.w3.org/2000/svg" width="96.815" height="82.885" viewBox="0 0 96.815 82.885"><defs><style>.a{fill:#28292b;}</style></defs><g transform="translate(0 -36.834)"><g transform="translate(0 36.834)"><g transform="translate(0 0)"><path d="M96.446,85.081c0-.058-.009-.116-.017-.174L91.577,51.141A1.891,1.891,0,0,0,89,49.655L66.667,58.634a1.891,1.891,0,1,0,1.411,3.509l20.1-8.08,4.478,31.158a1.894,1.894,0,0,0,.026.264,25.23,25.23,0,0,1-37.542,25.991c-.04-.023-.082-.043-.123-.063a34.259,34.259,0,0,0,3.537-3.091l22.139-5.932a1.891,1.891,0,0,0-.979-3.653L62.676,103.3a34.248,34.248,0,0,0,4.337-9.141l15.2-4.072a1.891,1.891,0,0,0-.979-3.653l-11.183,3,4.205-7.284,8.886-2.381a1.891,1.891,0,0,0-.979-3.653l-5.233,1.4,4.024-6.97a1.891,1.891,0,0,0-3.275-1.891l-4.024,6.97-1.4-5.233a1.891,1.891,0,1,0-3.653.979l2.381,8.886-2.46,4.262A34.152,34.152,0,0,0,46.559,52.29l-.036-.015L37.966,48.8a1.891,1.891,0,0,0-1.422,3.5l8.479,3.441q.058.026.117.049a30.4,30.4,0,0,1,5.924,53.781l-3.174-5.5L54.771,78.4a1.891,1.891,0,1,0-3.653-.979l-5.9,22.025-7-12.127,4.773-17.814a1.891,1.891,0,1,0-3.653-.979L35.541,82.69l-5.519-9.559L32.9,62.4a1.891,1.891,0,1,0-3.653-.979l-1.9,7.075-5.228-9.056a1.891,1.891,0,0,0-3.275,1.891l5.228,9.056L17,68.494a1.891,1.891,0,0,0-.979,3.653l10.728,2.875,5.519,9.559-14.16-3.794a1.891,1.891,0,0,0-.979,3.653L34.94,89.214l7,12.127-22.024-5.9a1.891,1.891,0,0,0-.979,3.653l25.678,6.88,3.173,5.5A30.382,30.382,0,0,1,4.208,79.248a1.835,1.835,0,0,0,.026-.281l5.4-37.581,12.528,5.084a1.891,1.891,0,0,0,1.422-3.5L8.817,36.972a1.891,1.891,0,0,0-2.583,1.483L.455,78.671a1.871,1.871,0,0,0-.018.191,34.2,34.2,0,0,0,49.244,35.886l2.324,4.025a1.891,1.891,0,1,0,3.275-1.891l-.862-1.493a28.909,28.909,0,0,0,13.348,3.279,29.243,29.243,0,0,0,7.534-.992,28.955,28.955,0,0,0,21.145-32.6Z" transform="translate(0 -36.834)"/></g></g><g transform="translate(28.021 45.683)"><path class="a" d="M151.415,84.185a1.892,1.892,0,1,0,.554,1.337A1.9,1.9,0,0,0,151.415,84.185Z" transform="translate(-148.187 -83.631)"/></g><g transform="translate(80.502 62.045)"><g transform="translate(0 0)"><path class="a" d="M429.162,170.956l-.011-.016a1.891,1.891,0,0,0-3.06,2.222l.011.015a1.891,1.891,0,1,0,3.06-2.222Z" transform="translate(-425.73 -170.16)"/></g></g></g></svg>