<?xml version="1.0" encoding="utf-8"?>
<!-- Generator: Adobe Illustrator 22.1.0, SVG Export Plug-In . SVG Version: 6.00 Build 0)  -->
<svg version="1.1" id="Layer_1" xmlns="http://www.w3.org/2000/svg" xmlns:xlink="http://www.w3.org/1999/xlink" x="0px" y="0px"
	 viewBox="0 0 64 100.3" style="enable-background:new 0 0 64 100.3;" xml:space="preserve">
<style type="text/css">
	.st0{fill:#E3E3E3;}
	.st1{fill:#FFFFFF;}
	.st2{fill:#FFFFFF;stroke:#000000;stroke-linecap:round;stroke-linejoin:round;stroke-miterlimit:10;}
	.st3{fill:#A1DAF8;}
	.st4{fill:none;stroke:#000000;stroke-linecap:round;stroke-linejoin:round;stroke-miterlimit:10;}
	.st5{enable-background:new    ;}
	.st6{fill:#4D6B89;}
	.st7{fill:#EAEAEA;}
	.st8{fill:#1D1D1B;}
	.st9{fill:#A0D9F7;}
	.st10{fill:none;stroke:#1D1D1B;stroke-linecap:round;stroke-linejoin:round;stroke-miterlimit:10;}
	.st11{font-family:'Roboto-Regular';}
	.st12{font-size:7.75px;}
	.st13{font-family:'Roboto-Bold';}
</style>
<g>
	<rect y="0.2" class="st7" width="64" height="64"/>
</g>
<g>
	<path class="st1" d="M50.3,55.6c0,2-1.6,2.6-2.6,2.6c-2.5,0-3-2.2-7.7-2.2s-5.2,2.2-7.7,2.2c-1,0-2.6-0.6-2.6-2.6
		c0-5.8,6.4-12.9,10.3-12.9S50.3,49.8,50.3,55.6z"/>
</g>
<g>
	<path class="st1" d="M29.7,47.9c0,0,0-5.1-5.1-5.1C24.6,42.8,24.6,47.9,29.7,47.9z"/>
</g>
<g>
	<path class="st1" d="M34,42.9c0,0,1.1-7.6-6.5-8.8C27.5,34.1,28.9,42.1,34,42.9z"/>
</g>
<g>
	<path class="st1" d="M36,27.9c0,0,7.3,5,3.7,12.3C39.7,40.2,33.1,36.7,36,27.9z"/>
</g>
<g>
	<path class="st1" d="M29.5,46.6c-0.3-1.3-1.2-3.1-3.5-3.6c-0.7-0.2-1.4,0.5-1.2,1.2c0.3,1.3,1.2,3.1,3.5,3.6
		C29,48,29.7,47.3,29.5,46.6z"/>
	<path class="st8" d="M28.5,48.3c-0.1,0-0.2,0-0.3,0c-2-0.4-3.4-1.9-3.9-4c-0.1-0.5,0-1,0.4-1.4c0.4-0.4,0.9-0.5,1.4-0.4
		c2,0.4,3.4,1.9,3.9,4c0.1,0.5,0,1-0.4,1.4C29.3,48.2,28.9,48.3,28.5,48.3z M25.8,43.4c-0.1,0-0.3,0.1-0.4,0.2
		c-0.1,0.1-0.2,0.2-0.1,0.5c0.3,1.2,1.1,2.8,3.2,3.3c0.2,0,0.4,0,0.5-0.1c0.1-0.1,0.2-0.2,0.1-0.5h0c-0.3-1.2-1.1-2.8-3.2-3.3
		C25.8,43.4,25.8,43.4,25.8,43.4z"/>
</g>
<g>
	<path class="st1" d="M34.1,41.5c-0.1-2-0.8-5.7-4.9-7c-0.8-0.3-1.5,0.5-1.3,1.2c0.6,2.1,2,5.5,4.7,6.7
		C33.3,42.8,34.1,42.3,34.1,41.5z"/>
	<path class="st8" d="M33.1,43.1c-0.2,0-0.4,0-0.6-0.1c-2.9-1.3-4.4-5-5-7.1c-0.2-0.5,0-1.1,0.4-1.5c0.4-0.4,1-0.5,1.5-0.4
		c4.4,1.5,5.1,5.3,5.2,7.5l0,0c0,0.5-0.2,1-0.7,1.3C33.6,43,33.4,43.1,33.1,43.1z M28.9,35c-0.1,0-0.3,0.1-0.4,0.1
		c-0.1,0.1-0.2,0.2-0.1,0.5c0.6,1.9,1.9,5.3,4.5,6.4c0.2,0.1,0.4,0,0.5,0c0.1-0.1,0.2-0.3,0.2-0.4l0,0c-0.1-1.9-0.7-5.3-4.5-6.6
		C29,35,28.9,35,28.9,35z"/>
</g>
<g>
	<path class="st1" d="M37.3,28.9c1.8,1.7,4.7,5.4,3,10.1c-0.2,0.7-1.1,0.9-1.6,0.4c-1.6-1.3-4.3-4.5-3-10
		C35.8,28.7,36.7,28.4,37.3,28.9z"/>
	<path class="st8" d="M39.3,40.2c-0.4,0-0.7-0.1-1-0.4c-1.8-1.5-4.5-4.8-3.2-10.5c0.1-0.5,0.5-0.9,1-1.1c0.5-0.2,1.1,0,1.5,0.4l0,0
		c1.9,1.8,4.9,5.6,3.1,10.6c-0.2,0.5-0.5,0.8-1,0.9C39.6,40.2,39.4,40.2,39.3,40.2z M36.6,29.2c0,0-0.1,0-0.2,0
		c-0.1,0-0.3,0.1-0.3,0.4c-1.2,5.2,1.3,8.2,2.9,9.5c0.1,0.1,0.3,0.1,0.5,0.1c0.2,0,0.3-0.2,0.3-0.3c1.6-4.4-1.1-7.9-2.8-9.6
		C36.8,29.2,36.7,29.2,36.6,29.2z"/>
</g>
<g>
	<path class="st1" d="M54,40.4c0.5,1.2,0.9,3.2-0.7,5c-0.5,0.6-1.4,0.4-1.7-0.3c-0.5-1.2-0.9-3.2,0.7-5C52.8,39.6,53.8,39.7,54,40.4
		z"/>
	<path class="st8" d="M52.6,46.3c-0.1,0-0.2,0-0.2,0c-0.5-0.1-0.9-0.4-1.1-0.9c-0.8-2-0.6-4,0.8-5.6c0.3-0.4,0.9-0.6,1.4-0.5
		c0.5,0.1,0.9,0.4,1.1,0.9l0,0c0.8,2,0.6,4-0.8,5.6C53.5,46.1,53,46.3,52.6,46.3z M53.1,40.3c-0.2,0-0.3,0.1-0.4,0.2
		c-1.4,1.6-1.1,3.3-0.6,4.5c0.1,0.2,0.3,0.3,0.4,0.3c0.2,0,0.4,0,0.5-0.2c1.4-1.6,1.1-3.3,0.6-4.5C53.5,40.4,53.3,40.3,53.1,40.3
		C53.2,40.3,53.1,40.3,53.1,40.3z"/>
</g>
<g>
	<path class="st1" d="M46.8,41c1.3-1.5,3.5-5,0.9-9c-0.4-0.6-1.2-0.6-1.6-0.1c-1.3,1.5-3.5,5-0.9,9C45.6,41.5,46.4,41.5,46.8,41z"/>
	<path class="st8" d="M46,41.9c0,0-0.1,0-0.1,0c-0.5,0-0.9-0.3-1.1-0.7c-2.8-4.4-0.3-8.2,0.9-9.6c0.3-0.4,0.8-0.6,1.3-0.5
		c0.5,0,0.9,0.3,1.1,0.7c2.8,4.4,0.3,8.2-0.9,9.6l0,0C46.9,41.7,46.5,41.9,46,41.9z M46.8,41L46.8,41L46.8,41z M46.9,32.1
		c-0.2,0-0.3,0.1-0.4,0.2c-1.3,1.5-3.2,4.7-0.9,8.4c0.1,0.2,0.3,0.2,0.4,0.2c0.2,0,0.3-0.1,0.4-0.2c1.3-1.5,3.2-4.7,0.9-8.4
		C47.2,32.1,47,32.1,46.9,32.1C46.9,32.1,46.9,32.1,46.9,32.1z"/>
</g>
<g>
	<path class="st9" d="M50.3,55.6c0,0.8-0.3,1.3-0.6,1.7c-1.7-4.8-6.5-9.5-9.7-9.5s-8,4.6-9.7,9.5c-0.4-0.4-0.6-1-0.6-1.7
		c0-5.8,6.4-12.9,10.3-12.9S50.3,49.8,50.3,55.6z"/>
</g>
<g>
	<path class="st8" d="M47.7,58.7c-1.2,0-2-0.5-2.8-1.1c-1.1-0.7-2.3-1.5-4.9-1.5c-2.5,0-3.8,0.8-4.8,1.5c-0.8,0.6-1.7,1.1-2.9,1.1
		c-1.2,0-3.1-0.8-3.1-3.1c0-5.2,5.9-13.4,10.8-13.4s10.8,8.2,10.8,13.4C50.8,57.9,48.9,58.7,47.7,58.7z M40,55.1
		c2.8,0,4.3,0.9,5.4,1.7c0.8,0.5,1.4,0.9,2.3,0.9c0.7,0,2.1-0.4,2.1-2.1c0-5.5-6.1-12.4-9.8-12.4s-9.8,6.9-9.8,12.4
		c0,1.6,1.4,2.1,2.1,2.1c0.9,0,1.5-0.4,2.3-0.9C35.7,56.1,37.2,55.1,40,55.1z"/>
</g>
<g>
	<g>
		<circle class="st1" cx="18.3" cy="18.5" r="12.3"/>
	</g>
	<g>
		<path class="st9" d="M7,23.5c-0.6-1.4-1-3-1-4.6C5.8,12.1,11.1,6.4,17.9,6.2c6.8-0.2,12.5,5.1,12.7,11.9c0.1,1.6-0.2,3.2-0.7,4.6
			c-2-4.4-6.5-7.5-11.7-7.3S8.7,18.9,7,23.5z"/>
	</g>
	<g>
		<g>
			<path class="st8" d="M18.3,38.7c-0.3,0-0.5-0.2-0.5-0.5V12.4c0-0.3,0.2-0.5,0.5-0.5s0.5,0.2,0.5,0.5v25.8
				C18.8,38.5,18.6,38.7,18.3,38.7z"/>
		</g>
		<g>
			<path class="st8" d="M18.3,22.1c-0.1,0-0.3,0-0.4-0.1c-0.2-0.2-0.2-0.5,0-0.7l6.2-6.2c0.2-0.2,0.5-0.2,0.7,0s0.2,0.5,0,0.7
				L18.7,22C18.6,22.1,18.4,22.1,18.3,22.1z"/>
		</g>
		<g>
			<path class="st8" d="M18.3,28.3c-0.1,0-0.3,0-0.4-0.1c-0.2-0.2-0.2-0.5,0-0.7l6.2-6.2c0.2-0.2,0.5-0.2,0.7,0s0.2,0.5,0,0.7
				l-6.2,6.2C18.6,28.2,18.4,28.3,18.3,28.3z"/>
		</g>
		<g>
			<path class="st8" d="M18.3,28.3c-0.1,0-0.3,0-0.4-0.1L11.8,22c-0.2-0.2-0.2-0.5,0-0.7s0.5-0.2,0.7,0l6.2,6.2
				c0.2,0.2,0.2,0.5,0,0.7C18.6,28.2,18.4,28.3,18.3,28.3z"/>
		</g>
		<g>
			<path class="st8" d="M18.3,22.1c-0.1,0-0.3,0-0.4-0.1l-6.2-6.2c-0.2-0.2-0.2-0.5,0-0.7s0.5-0.2,0.7,0l6.2,6.2
				c0.2,0.2,0.2,0.5,0,0.7C18.6,22.1,18.4,22.1,18.3,22.1z"/>
		</g>
	</g>
	<g>
		<path class="st8" d="M18.3,31.3c-7.1,0-12.8-5.7-12.8-12.8S11.2,5.7,18.3,5.7s12.8,5.7,12.8,12.8S25.4,31.3,18.3,31.3z M18.3,6.7
			C11.8,6.7,6.5,12,6.5,18.5s5.3,11.8,11.8,11.8S30.1,25,30.1,18.5S24.8,6.7,18.3,6.7z"/>
	</g>
</g>
<text transform="matrix(1 0 0 1 2.288818e-04 74)"><tspan x="0" y="0" class="st6 st11 st12">04</tspan><tspan x="0" y="8" class="st8 st13 st12">Nature Across </tspan><tspan x="0" y="16" class="st8 st13 st12">Borders</tspan></text>
</svg>
