<?xml version="1.0" encoding="utf-8"?>
<!-- Generator: Adobe Illustrator 22.1.0, SVG Export Plug-In . SVG Version: 6.00 Build 0)  -->
<svg version="1.1" id="Layer_1" xmlns="http://www.w3.org/2000/svg" xmlns:xlink="http://www.w3.org/1999/xlink" x="0px" y="0px"
	 viewBox="0 0 64 92" style="enable-background:new 0 0 64 92;" xml:space="preserve">
<style type="text/css">
	.st0{fill:#EAEAEA;}
	.st1{fill:#FFFFFF;}
	.st2{fill:#1D1D1B;}
	.st3{font-family:'Roboto', sans-serif;}
	.st4{font-size:7.75px;}
	.st5{fill:#9ED8F7;}
	.st6{fill:#FFFFFF;stroke:#1D1D1B;stroke-miterlimit:10;}
	.st7{fill:#8BBBD5;}
	.st8{fill:#FFFFFF;stroke:#1D1D1B;stroke-linecap:round;stroke-linejoin:round;stroke-miterlimit:10;}
	.st9{fill:none;stroke:#1D1D1B;stroke-linecap:round;stroke-miterlimit:10;}
	.st10{fill:none;stroke:#1D1D1B;stroke-miterlimit:10;}
</style>
<g>
	<rect y="0" class="st0" width="64" height="64"/>
</g>
<path class="st1" d="M42.9,19.7c0.9-1.8,1.3-4.3,0.9-7.9c0,0-6.4-1.3-9.9,3.6c-0.4,0.6-2.4,9.2-1.9,8.5C38,15.9,42.9,19.7,42.9,19.7
	z"/>
<text transform="matrix(1 0 0 1 -2.441406e-04 74.0044)" class="st2 st3 st4">Nature in  </text>
<text transform="matrix(1 0 0 1 -2.441406e-04 82.0044)" class="st2 st3 st4">Sustainable </text>
<text transform="matrix(1 0 0 1 -2.441406e-04 90.0044)" class="st2 st3 st4">Development</text>
<path class="st5" d="M32,34l4-4c0-6,5-7.9,8-7.9C44,22.1,32,20,32,34z"/>
<path class="st5" d="M32,44l4-4c0-6,5-7.9,8-7.9C44,32.1,32,30,32,44z"/>
<path class="st5" d="M32,24l4-4c0-6,5-7.9,8-7.9C44,12.1,32,10,32,24z"/>
<path class="st1" d="M35.9,12c-2.2,0-3.8,1.7-4,2c-0.2-0.2-1.8-2-4-2c0-1.9,3.5-5.5,4-6C32.4,6.5,35.9,10.1,35.9,12z"/>
<path class="st1" d="M42.9,29.8c0.9-1.8,1.3-4.3,0.9-7.9c0,0-6.4-1.3-9.9,3.6c-0.4,0.6-2.4,9.2-1.9,8.5C38,26,42.9,29.8,42.9,29.8z"
	/>
<path class="st1" d="M21.1,20c-0.9-1.8-1.3-4.3-0.9-7.9c0,0,6.4-1.3,9.9,3.6c0.4,0.6,2.4,9.2,1.9,8.5C27,18.3,21.1,20,21.1,20z"/>
<path class="st1" d="M21.1,29.8c-0.9-1.8-1.3-4.3-0.9-7.9c0,0,6.4-1.3,9.9,3.6c0.4,0.6,2.4,9.2,1.9,8.5C27,28.1,21.1,29.8,21.1,29.8
	z"/>
<path class="st6" d="M31.9,43.7c0,0,13.7,3.3,12-12C43.9,31.7,31.9,29.3,31.9,43.7z"/>
<path class="st1" d="M43.5,50H48v8H38v-2.5C38,52.5,40.5,50,43.5,50z"/>
<path class="st1" d="M20.5,50H16v8h10v-2.5C26,52.5,23.5,50,20.5,50z"/>
<path class="st7" d="M36.3,12c-0.7-1.8-1.3-3.8-4-6"/>
<g>
	<path class="st8" d="M48,48.3c2.5-1.4,4.2-3.9,4.5-6.8l0.1-2.5c0-0.6-0.2-1.2-0.7-1.7l0,0c-1-1-1.9-2.2-2.4-3.6
		c-0.4-1.1-0.5-2.2,0.3-3.2c0.4-0.4,0.8-0.7,1.2-0.7l0,0l4.6,6.8c0.6,0.9,0.9,2,0.8,3l-0.6,7c-0.2,2.1-2.8,4.5-4.6,6
		c-1.2,1-3.2,2.4-3.2,4V58"/>
	<path class="st8" d="M46,52l5.2-3.5c0.5-0.4,0.9-0.9,1.1-1.5l1.7-5l0,0c-1-1-2.8-0.9-3.6,0.4l-2,3c-0.3,0.4-0.7,0.8-1.2,1.1
		L41.3,50c-2,1.2-3.3,3.5-3.3,6l0,0v2"/>
</g>
<g>
	<path class="st8" d="M16.4,48.3c-2.5-1.4-4.2-3.9-4.5-6.8L11.8,39c0-0.6,0.2-1.2,0.7-1.7l0,0c1-1,1.9-2.2,2.4-3.6
		c0.4-1.1,0.5-2.2-0.3-3.2c-0.4-0.4-0.8-0.7-1.2-0.7l0,0l-4.6,6.8c-0.6,0.9-0.9,2-0.8,3l0.6,7c0.2,2.1,2.8,4.5,4.6,6
		c1.2,1,3.2,2.4,3.2,4V58"/>
	<path class="st8" d="M18.5,52l-5.2-3.5c-0.5-0.4-0.9-0.9-1.1-1.5l-1.7-5l0,0c1-1,2.8-0.9,3.6,0.4l2,3c0.3,0.4,0.7,0.8,1.2,1.1
		l5.9,3.5c2.1,1.3,3.4,3.6,3.4,6.1l0,0v2"/>
</g>
<path class="st6" d="M31.9,43.7c0,0-13.7,3.3-12-12C19.9,31.7,31.9,29.3,31.9,43.7z"/>
<path class="st9" d="M36,12c-0.7-1.8-1.3-3.8-4-6c0,0-3.3,2.1-4,6"/>
<path class="st10" d="M31.7,23.9"/>
<line class="st10" x1="32" y1="46" x2="32" y2="50"/>
<path class="st5" d="M32,34l4-4c0-6,5-7.9,8-7.9C44,22.1,32,20,32,34z"/>
<path class="st5" d="M32,44l4-4c0-6,5-7.9,8-7.9C44,32.1,32,30,32,44z"/>
<path class="st5" d="M32,24l4-4c0-6,5-7.9,8-7.9C44,12.1,32,10,32,24z"/>
<path class="st10" d="M31.9,43.7c0,0,13.7,3.3,12-12C43.9,31.7,31.9,29.3,31.9,43.7z"/>
<path class="st9" d="M42.8,29.8c0.9-1.8,1.3-4.3,0.9-7.9c0,0-6.4-1.3-9.9,3.6c-0.4,0.6-0.8,1.4-1.2,2.2"/>
<path class="st9" d="M42.8,19.8c0.9-1.8,1.3-4.3,0.9-7.9c0,0-6.6-1.3-10,3.8c-0.4,0.6-0.7,1.2-1,2"/>
<path class="st9" d="M20.8,19.8c-0.9-1.8-1.3-4.3-0.9-7.9c0,0,12-2.4,12,12"/>
<path class="st9" d="M20.8,29.8c-0.9-1.8-1.3-4.3-0.9-7.9c0,0,12-2.4,12,12"/>
</svg>
