<?xml version="1.0" encoding="utf-8"?>
<!-- Generator: Adobe Illustrator 22.1.0, SVG Export Plug-In . SVG Version: 6.00 Build 0)  -->
<svg version="1.1" id="Layer_1" xmlns="http://www.w3.org/2000/svg" xmlns:xlink="http://www.w3.org/1999/xlink" x="0px" y="0px"
	 viewBox="0 0 64 90" style="enable-background:new 0 0 64 90;" xml:space="preserve">
<style type="text/css">
	.st0{fill:#EAEAEA;}
	.st1{fill:#FFFFFF;}
	.st2{fill:#FFFFFF;stroke:#1D1D1B;stroke-linecap:round;stroke-linejoin:round;stroke-miterlimit:10;}
	.st3{fill:#A0D9F7;}
	.st4{fill:none;stroke:#1D1D1B;stroke-linecap:round;stroke-linejoin:round;stroke-miterlimit:10;}
	.st5{fill:#1D1D1B;}
	.st6{font-family:'Roboto-Bold';}
	.st7{font-size:7.75px;}
</style>
<g>
	<rect y="0" class="st0" width="64" height="64"/>
</g>
<path class="st1" d="M50.3,55.6c0,2-1.6,2.6-2.6,2.6c-2.5,0-3-5.2-7.7-5.2s-5.2,5.2-7.7,5.2c-1,0-2.6-0.6-2.6-2.6
	c0-5.8,6.4-12.9,10.3-12.9S50.3,49.8,50.3,55.6z"/>
<path class="st1" d="M29.7,47.9c0,0,0-5.1-5.1-5.1C24.6,42.8,24.6,47.9,29.7,47.9z"/>
<path class="st1" d="M34,42.9c0,0,1.1-7.6-6.5-8.8C27.5,34.1,28.9,42.1,34,42.9z"/>
<path class="st1" d="M36,27.9c0,0,7.3,5,3.7,12.3C39.7,40.2,33.1,36.7,36,27.9z"/>
<path class="st2" d="M29.5,46.6c-0.3-1.3-1.2-3.1-3.5-3.6c-0.7-0.2-1.4,0.5-1.2,1.2c0.3,1.3,1.2,3.1,3.5,3.6
	C29,48,29.7,47.3,29.5,46.6z"/>
<path class="st2" d="M34.1,41.5c-0.1-2-0.8-5.7-4.9-7c-0.8-0.3-1.5,0.5-1.3,1.2c0.6,2.1,2,5.5,4.7,6.7
	C33.3,42.8,34.1,42.3,34.1,41.5z"/>
<path class="st2" d="M37.3,28.9c1.8,1.7,4.7,5.4,3,10.1c-0.2,0.7-1.1,0.9-1.6,0.4c-1.6-1.3-4.3-4.5-3-10
	C35.8,28.7,36.7,28.4,37.3,28.9z"/>
<path class="st2" d="M54,40.4c0.5,1.2,0.9,3.2-0.7,5c-0.5,0.6-1.4,0.4-1.7-0.3c-0.5-1.2-0.9-3.2,0.7-5C52.8,39.6,53.8,39.7,54,40.4z
	"/>
<path class="st2" d="M46.8,41c1.3-1.5,3.5-5,0.9-9c-0.4-0.6-1.2-0.6-1.6-0.1c-1.3,1.5-3.5,5-0.9,9C45.6,41.5,46.4,41.5,46.8,41z"/>
<path class="st3" d="M50.3,55.6c0,0.8-0.3,1.3-0.6,1.7c-1.7-4.8-6.5-9.5-9.7-9.5s-8,4.6-9.7,9.5c-0.4-0.4-0.6-1-0.6-1.7
	c0-5.8,6.4-12.9,10.3-12.9S50.3,49.8,50.3,55.6z"/>
<path class="st4" d="M50.3,55.6c0,2-1.6,2.6-2.6,2.6c-2.5,0-3-2.6-7.7-2.6s-5.2,2.6-7.7,2.6c-1,0-2.6-0.6-2.6-2.6
	c0-5.8,6.4-12.9,10.3-12.9S50.3,49.8,50.3,55.6z"/>
<g>
	<circle class="st1" cx="18.3" cy="18.5" r="12.3"/>
	<path class="st3" d="M7,23.5c-0.6-1.4-1-3-1-4.6C5.8,12.1,11.1,6.4,17.9,6.2c6.8-0.2,12.5,5.1,12.7,11.9c0.1,1.6-0.2,3.2-0.7,4.6
		c-2-4.4-6.5-7.5-11.7-7.3S8.7,18.9,7,23.5z"/>
	<g>
		<polyline class="st4" points="18.3,38.2 18.3,12.4 18.3,28.7 		"/>
		<line class="st4" x1="18.3" y1="21.6" x2="24.5" y2="15.5"/>
		<line class="st4" x1="18.3" y1="27.8" x2="24.5" y2="21.6"/>
		<line class="st4" x1="18.3" y1="27.8" x2="12.2" y2="21.6"/>
		<line class="st4" x1="18.3" y1="21.6" x2="12.2" y2="15.5"/>
	</g>
	<path class="st4" d="M15.2,21.6"/>
	<circle class="st4" cx="18.3" cy="18.5" r="12.3"/>
</g>
<text transform="matrix(1 0 0 1 -2.441406e-04 74)" class="st5 st6 st7">Nature Across </text>
<text transform="matrix(1 0 0 1 -2.441406e-04 82)" class="st5 st6 st7">Borders</text>
</svg>
