<?xml version="1.0" encoding="utf-8"?>
<!-- Generator: Adobe Illustrator 22.1.0, SVG Export Plug-In . SVG Version: 6.00 Build 0)  -->
<svg version="1.1" id="Layer_1" xmlns="http://www.w3.org/2000/svg" xmlns:xlink="http://www.w3.org/1999/xlink" x="0px" y="0px"
	 viewBox="0 0 64 90" style="enable-background:new 0 0 64 90;" xml:space="preserve">
<style type="text/css">
	.st0{fill:#EAEAEA;}
	.st1{fill:#FFFFFF;stroke:#1D1D1B;stroke-linecap:round;stroke-linejoin:round;stroke-miterlimit:10;}
	.st2{fill:#FFFFFF;}
	.st3{fill:#A0D9F7;}
	.st4{fill:#E8E8E8;}
	.st5{fill:none;stroke:#1D1D1B;stroke-linecap:round;stroke-linejoin:round;stroke-miterlimit:10;}
	.st6{fill:#1D1D1B;}
	.st7{font-family:'Roboto-Bold';}
	.st8{font-size:7.75px;}
</style>
<g>
	<rect y="0" class="st0" width="64" height="64"/>
</g>
<path class="st1" d="M56,22c1.1,0,2,0.9,2,2v28c0,1.1-0.9,2-2,2h-2h-2l0,0l0,0H34v-2"/>
<polygon class="st2" points="18,18 12,10 6,18 6,50 12,42 18,50 "/>
<polygon class="st3" points="18,18 12,10 6,18 6,30 12,22 18,30 "/>
<polygon class="st2" points="30,18 24,10 18,18 18,50 24,42 30,50 "/>
<polygon class="st3" points="30,18 24,10 18,18 18,30 24,22 30,30 "/>
<rect x="30" y="18" class="st4" width="24" height="12"/>
<polyline class="st5" points="6,50 12,42 18,50 "/>
<polyline class="st5" points="6,18 12,10 18,18 "/>
<line class="st5" x1="18" y1="50" x2="18" y2="18"/>
<line class="st5" x1="12" y1="42" x2="12" y2="10"/>
<polyline class="st5" points="18,50 24,42 30,50 "/>
<polyline class="st5" points="18,18 24,10 30,18 "/>
<line class="st5" x1="30" y1="50" x2="30" y2="18"/>
<line class="st5" x1="24" y1="42" x2="24" y2="10"/>
<path class="st1" d="M52,50h-2h-2l0,0l0,0H30V18h22c1.1,0,2,0.9,2,2v28C54,49.1,53.1,50,52,50z"/>
<line class="st5" x1="31" y1="39" x2="53" y2="39"/>
<line class="st5" x1="30" y1="39" x2="24" y2="31"/>
<line class="st5" x1="18" y1="39" x2="24" y2="31"/>
<line class="st5" x1="18" y1="29" x2="24" y2="21"/>
<line class="st5" x1="30" y1="29" x2="24" y2="21"/>
<polyline class="st5" points="6,50 12,42 18,50 "/>
<line class="st5" x1="18" y1="39" x2="12" y2="31"/>
<line class="st5" x1="6" y1="39" x2="12" y2="31"/>
<line class="st5" x1="6" y1="29" x2="12" y2="21"/>
<line class="st5" x1="18" y1="29" x2="12" y2="21"/>
<path class="st5" d="M18,18l-6-8l-5.6,7.5C6.1,17.8,6,18.2,6,18.7V50l6-8l6,8V18z"/>
<path class="st3" d="M54,29H30V18h22c1.1,0,1.9,0.9,1.9,1.9L54,29L54,29z"/>
<line class="st5" x1="31" y1="29" x2="53" y2="29"/>
<line class="st5" x1="38" y1="19" x2="38" y2="49"/>
<line class="st5" x1="46" y1="49" x2="46" y2="19"/>
<path class="st5" d="M52,50h-2h-2l0,0l0,0H30V18h22c1.1,0,2,0.9,2,2v28C54,49.1,53.1,50,52,50z"/>
<text transform="matrix(1 0 0 1 -2.441406e-04 74.0044)" class="st6 st7 st8">Planning for  </text>
<text transform="matrix(1 0 0 1 -2.441406e-04 82.0044)" class="st6 st7 st8">Places</text>
</svg>
