<?xml version="1.0" encoding="utf-8"?>
<!-- Generator: Adobe Illustrator 22.1.0, SVG Export Plug-In . SVG Version: 6.00 Build 0)  -->
<svg version="1.1" id="Layer_1" xmlns="http://www.w3.org/2000/svg" xmlns:xlink="http://www.w3.org/1999/xlink" x="0px" y="0px"
	 viewBox="0 0 64 100.3" style="enable-background:new 0 0 64 100.3;" xml:space="preserve">
<style type="text/css">
	.st0{fill:#E3E3E3;}
	.st1{fill:#FFFFFF;}
	.st2{fill:#FFFFFF;stroke:#000000;stroke-linecap:round;stroke-linejoin:round;stroke-miterlimit:10;}
	.st3{fill:#A1DAF8;}
	.st4{fill:none;stroke:#000000;stroke-linecap:round;stroke-linejoin:round;stroke-miterlimit:10;}
	.st5{enable-background:new    ;}
	.st6{fill:#4D6B89;}
	.st7{fill:#EAEAEA;}
	.st8{fill:#1D1D1B;}
	.st9{fill:#A0D9F7;}
	.st10{fill:#E8E8E8;}
	.st11{font-family:'Roboto-Regular';}
	.st12{font-size:7.75px;}
	.st13{font-family:'Roboto-Bold';}
</style>
<g>
	<rect y="0" class="st7" width="64" height="64"/>
</g>
<g>
	<path class="st1" d="M56,22c1.1,0,2,0.9,2,2v28c0,1.1-0.9,2-2,2h-2h-2l0,0h0H34v-2"/>
	<path class="st8" d="M56,54.5H34c-0.3,0-0.5-0.2-0.5-0.5v-2c0-0.3,0.2-0.5,0.5-0.5s0.5,0.2,0.5,0.5v1.5H56c0.8,0,1.5-0.7,1.5-1.5
		V24c0-0.8-0.7-1.5-1.5-1.5c-0.3,0-0.5-0.2-0.5-0.5s0.2-0.5,0.5-0.5c1.4,0,2.5,1.1,2.5,2.5v28C58.5,53.4,57.3,54.5,56,54.5z"/>
</g>
<g>
	<polygon class="st1" points="18,18 12,10 6,18 6,50 12,42 18,50 	"/>
</g>
<g>
	<polygon class="st9" points="18,18 12,10 6,18 6,30 12,22 18,30 	"/>
</g>
<g>
	<polygon class="st1" points="30,18 24,10 18,18 18,50 24,42 30,50 	"/>
</g>
<g>
	<polygon class="st9" points="30,18 24,10 18,18 18,30 24,22 30,30 	"/>
</g>
<g>
	<rect x="30" y="18" class="st10" width="24" height="12"/>
</g>
<g>
	<path class="st8" d="M18,50.5c-0.2,0-0.3-0.1-0.4-0.2L12,42.8l-5.6,7.5c-0.2,0.2-0.5,0.3-0.7,0.1c-0.2-0.2-0.3-0.5-0.1-0.7l6-8
		c0.2-0.3,0.6-0.3,0.8,0l6,8c0.2,0.2,0.1,0.5-0.1,0.7C18.2,50.5,18.1,50.5,18,50.5z"/>
</g>
<g>
	<path class="st8" d="M18,18.5c-0.2,0-0.3-0.1-0.4-0.2L12,10.8l-5.6,7.5c-0.2,0.2-0.5,0.3-0.7,0.1c-0.2-0.2-0.3-0.5-0.1-0.7l6-8
		c0.2-0.3,0.6-0.3,0.8,0l6,8c0.2,0.2,0.1,0.5-0.1,0.7C18.2,18.5,18.1,18.5,18,18.5z"/>
</g>
<g>
	<path class="st8" d="M18,50.5c-0.3,0-0.5-0.2-0.5-0.5V18c0-0.3,0.2-0.5,0.5-0.5s0.5,0.2,0.5,0.5v32C18.5,50.3,18.2,50.5,18,50.5z"
		/>
</g>
<g>
	<path class="st8" d="M12,42.5c-0.3,0-0.5-0.2-0.5-0.5V10c0-0.3,0.2-0.5,0.5-0.5s0.5,0.2,0.5,0.5v32C12.5,42.3,12.2,42.5,12,42.5z"
		/>
</g>
<g>
	<path class="st8" d="M30,50.5c-0.2,0-0.3-0.1-0.4-0.2L24,42.8l-5.6,7.5c-0.2,0.2-0.5,0.3-0.7,0.1c-0.2-0.2-0.3-0.5-0.1-0.7l6-8
		c0.2-0.3,0.6-0.3,0.8,0l6,8c0.2,0.2,0.1,0.5-0.1,0.7C30.2,50.5,30.1,50.5,30,50.5z"/>
</g>
<g>
	<path class="st8" d="M30,18.5c-0.2,0-0.3-0.1-0.4-0.2L24,10.8l-5.6,7.5c-0.2,0.2-0.5,0.3-0.7,0.1c-0.2-0.2-0.3-0.5-0.1-0.7l6-8
		c0.2-0.3,0.6-0.3,0.8,0l6,8c0.2,0.2,0.1,0.5-0.1,0.7C30.2,18.5,30.1,18.5,30,18.5z"/>
</g>
<g>
	<path class="st8" d="M30,50.5c-0.3,0-0.5-0.2-0.5-0.5V18c0-0.3,0.2-0.5,0.5-0.5s0.5,0.2,0.5,0.5v32C30.5,50.3,30.2,50.5,30,50.5z"
		/>
</g>
<g>
	<path class="st8" d="M24,42.5c-0.3,0-0.5-0.2-0.5-0.5V10c0-0.3,0.2-0.5,0.5-0.5s0.5,0.2,0.5,0.5v32C24.5,42.3,24.2,42.5,24,42.5z"
		/>
</g>
<g>
	<path class="st1" d="M52,50h-2h-2l0,0h0H30V18h22c1.1,0,2,0.9,2,2v28C54,49.1,53.1,50,52,50z"/>
	<path class="st8" d="M52,50.5H30c-0.3,0-0.5-0.2-0.5-0.5V18c0-0.3,0.2-0.5,0.5-0.5h22c1.4,0,2.5,1.1,2.5,2.5v28
		C54.5,49.4,53.3,50.5,52,50.5z M30.5,49.5H52c0.8,0,1.5-0.7,1.5-1.5V20c0-0.8-0.7-1.5-1.5-1.5H30.5V49.5z"/>
</g>
<g>
	<path class="st8" d="M53,39.5H31c-0.3,0-0.5-0.2-0.5-0.5s0.2-0.5,0.5-0.5h22c0.3,0,0.5,0.2,0.5,0.5S53.2,39.5,53,39.5z"/>
</g>
<g>
	<path class="st8" d="M30,39.5c-0.2,0-0.3-0.1-0.4-0.2l-6-8c-0.2-0.2-0.1-0.5,0.1-0.7c0.2-0.2,0.5-0.1,0.7,0.1l6,8
		c0.2,0.2,0.1,0.5-0.1,0.7C30.2,39.5,30.1,39.5,30,39.5z"/>
</g>
<g>
	<path class="st8" d="M18,39.5c-0.1,0-0.2,0-0.3-0.1c-0.2-0.2-0.3-0.5-0.1-0.7l6-8c0.2-0.2,0.5-0.3,0.7-0.1c0.2,0.2,0.3,0.5,0.1,0.7
		l-6,8C18.3,39.4,18.1,39.5,18,39.5z"/>
</g>
<g>
	<path class="st8" d="M18,29.5c-0.1,0-0.2,0-0.3-0.1c-0.2-0.2-0.3-0.5-0.1-0.7l6-8c0.2-0.2,0.5-0.3,0.7-0.1c0.2,0.2,0.3,0.5,0.1,0.7
		l-6,8C18.3,29.4,18.1,29.5,18,29.5z"/>
</g>
<g>
	<path class="st8" d="M30,29.5c-0.2,0-0.3-0.1-0.4-0.2l-6-8c-0.2-0.2-0.1-0.5,0.1-0.7c0.2-0.2,0.5-0.1,0.7,0.1l6,8
		c0.2,0.2,0.1,0.5-0.1,0.7C30.2,29.5,30.1,29.5,30,29.5z"/>
</g>
<g>
	<path class="st8" d="M18,50.5c-0.2,0-0.3-0.1-0.4-0.2L12,42.8l-5.6,7.5c-0.2,0.2-0.5,0.3-0.7,0.1c-0.2-0.2-0.3-0.5-0.1-0.7l6-8
		c0.2-0.3,0.6-0.3,0.8,0l6,8c0.2,0.2,0.1,0.5-0.1,0.7C18.2,50.5,18.1,50.5,18,50.5z"/>
</g>
<g>
	<path class="st8" d="M18,39.5c-0.2,0-0.3-0.1-0.4-0.2l-6-8c-0.2-0.2-0.1-0.5,0.1-0.7c0.2-0.2,0.5-0.1,0.7,0.1l6,8
		c0.2,0.2,0.1,0.5-0.1,0.7C18.2,39.5,18.1,39.5,18,39.5z"/>
</g>
<g>
	<path class="st8" d="M6,39.5c-0.1,0-0.2,0-0.3-0.1c-0.2-0.2-0.3-0.5-0.1-0.7l6-8c0.2-0.2,0.5-0.3,0.7-0.1c0.2,0.2,0.3,0.5,0.1,0.7
		l-6,8C6.3,39.4,6.1,39.5,6,39.5z"/>
</g>
<g>
	<path class="st8" d="M6,29.5c-0.1,0-0.2,0-0.3-0.1c-0.2-0.2-0.3-0.5-0.1-0.7l6-8c0.2-0.2,0.5-0.3,0.7-0.1c0.2,0.2,0.3,0.5,0.1,0.7
		l-6,8C6.3,29.4,6.1,29.5,6,29.5z"/>
</g>
<g>
	<path class="st8" d="M18,29.5c-0.2,0-0.3-0.1-0.4-0.2l-6-8c-0.2-0.2-0.1-0.5,0.1-0.7c0.2-0.2,0.5-0.1,0.7,0.1l6,8
		c0.2,0.2,0.1,0.5-0.1,0.7C18.2,29.5,18.1,29.5,18,29.5z"/>
</g>
<g>
	<path class="st8" d="M18,50.5c-0.2,0-0.3-0.1-0.4-0.2L12,42.8l-5.6,7.5c-0.1,0.2-0.4,0.2-0.6,0.2c-0.2-0.1-0.3-0.3-0.3-0.5V18.7
		c0-0.5,0.2-1.1,0.5-1.5l5.6-7.5c0.2-0.3,0.6-0.3,0.8,0l6,8c0.1,0.1,0.1,0.2,0.1,0.3v32c0,0.2-0.1,0.4-0.3,0.5
		C18.1,50.5,18,50.5,18,50.5z M12,41.5c0.2,0,0.3,0.1,0.4,0.2l5.1,6.8V18.2L12,10.8l-5.2,6.9c-0.2,0.3-0.3,0.6-0.3,0.9v29.8l5.1-6.8
		C11.6,41.6,11.8,41.5,12,41.5z"/>
</g>
<g>
	<path class="st9" d="M54,29H30V18H52c1.1,0,1.9,0.9,1.9,1.9V29z"/>
</g>
<g>
	<path class="st8" d="M53,29.5H31c-0.3,0-0.5-0.2-0.5-0.5s0.2-0.5,0.5-0.5h22c0.3,0,0.5,0.2,0.5,0.5S53.2,29.5,53,29.5z"/>
</g>
<g>
	<path class="st8" d="M38,49.5c-0.3,0-0.5-0.2-0.5-0.5V19c0-0.3,0.2-0.5,0.5-0.5s0.5,0.2,0.5,0.5v30C38.5,49.3,38.2,49.5,38,49.5z"
		/>
</g>
<g>
	<path class="st8" d="M46,49.5c-0.3,0-0.5-0.2-0.5-0.5V19c0-0.3,0.2-0.5,0.5-0.5s0.5,0.2,0.5,0.5v30C46.5,49.3,46.2,49.5,46,49.5z"
		/>
</g>
<g>
	<path class="st8" d="M52,50.5H30c-0.3,0-0.5-0.2-0.5-0.5V18c0-0.3,0.2-0.5,0.5-0.5h22c1.4,0,2.5,1.1,2.5,2.5v28
		C54.5,49.4,53.3,50.5,52,50.5z M30.5,49.5H52c0.8,0,1.5-0.7,1.5-1.5V20c0-0.8-0.7-1.5-1.5-1.5H30.5V49.5z"/>
</g>
<text transform="matrix(1 0 0 1 2.288818e-04 74.0044)"><tspan x="0" y="0" class="st6 st11 st12">03</tspan><tspan x="0" y="8" class="st8 st13 st12">Planning for  </tspan><tspan x="0" y="16" class="st8 st13 st12">Places</tspan></text>
</svg>
