<svg width="61" height="44" viewBox="0 0 61 44" fill="none" xmlns="http://www.w3.org/2000/svg">
<path d="M47.9585 15.1999C45.5606 14.4984 43.7916 12.2768 43.7916 9.66566C43.7916 9.19798 43.831 8.73023 43.9488 8.30157L47.7619 8.76925C47.7619 8.76925 49.2165 8.84721 49.1771 11.3804C49.0985 13.8748 47.9585 15.1999 47.9585 15.1999Z" fill="#009FE3"/>
<path d="M51.339 15.1999C53.737 14.4984 55.5058 12.2768 55.5058 9.66566C55.5058 9.19798 55.4666 8.73023 55.3486 8.30157L51.5356 8.76925C51.5356 8.76925 50.0811 8.84721 50.1204 11.3804C50.199 13.8748 51.339 15.1999 51.339 15.1999Z" fill="#009FE3"/>
<path d="M49.6484 5.49524C50.1202 5.49524 50.5526 5.88495 50.5526 6.39165C50.5526 6.78136 50.2774 7.05418 49.9629 7.21009C49.9236 7.24903 49.8843 7.24903 49.8843 7.32699C49.8843 7.40495 50.0808 7.40495 50.1594 7.44397L55.2698 8.02854C54.5622 5.61213 52.3215 3.85834 49.6484 3.85834C47.0146 3.85834 44.7347 5.61213 44.0271 8.02854L49.1374 7.44397C49.2161 7.44397 49.4125 7.40495 49.4125 7.32699C49.4125 7.24903 49.3733 7.24903 49.3339 7.21009C49.0195 7.05418 48.7443 6.74242 48.7443 6.39165C48.7836 5.88495 49.1767 5.49524 49.6484 5.49524Z" fill="#009FE3"/>
<path d="M51.968 19.2918L52.3219 19.097C52.3219 19.097 50.6708 16.8755 47.015 16.8755C45.1281 16.8755 44.1453 17.616 42.8481 17.616C42.8481 17.616 42.2977 17.6939 41.7867 17.3432C41.7867 17.3432 42.4157 18.2396 44.6957 18.2396C46.3467 18.2396 47.5653 17.2652 48.7053 17.2652C50.317 17.3042 51.4963 18.7462 51.968 19.2918Z" fill="#009FE3"/>
<path d="M46.8969 19.2918L46.5431 19.097C46.5431 19.097 48.1941 16.8755 51.85 16.8755C53.7368 16.8755 54.7196 17.616 56.0169 17.616C56.0169 17.616 56.5672 17.6939 57.0782 17.3432C57.0782 17.3432 56.4493 18.2396 54.1693 18.2396C52.5182 18.2396 51.2997 17.2652 50.1596 17.2652C48.5872 17.3042 47.3686 18.7462 46.8969 19.2918Z" fill="#009FE3"/>
<path d="M45.1282 16.6809C45.0496 16.8368 44.342 16.6419 43.8703 16.7978C43.32 16.9537 40.5289 17.3045 39.3103 14.3815C39.3103 14.3815 40.4896 15.6286 41.3937 15.7065C42.2979 15.7845 43.2806 16.0184 44.1455 16.486L44.342 16.525C44.342 16.525 44.3027 16.447 44.2241 16.4081C44.1061 16.3301 43.2414 16.0573 42.8089 14.6932C42.6123 13.9917 42.6517 13.4851 42.5337 13.0953C42.5337 13.0953 43.4772 14.1476 43.8703 14.8101C44.3027 15.5117 44.342 16.2522 45.1282 16.6809Z" fill="#009FE3"/>
<path d="M42.2585 15.2387C42.1799 15.3166 42.0227 15.1996 41.944 15.1607C41.8654 15.1217 41.3937 14.9268 40.6075 14.654C39.8213 14.3812 38.3668 13.1341 38.4848 11.0295C38.4848 11.0295 38.6813 11.8089 39.3103 12.3546C39.8999 12.8613 40.1358 12.9392 40.4896 13.3679C40.8434 13.7966 41.6689 14.771 41.7082 14.771C41.7476 14.771 41.7475 14.693 41.6689 14.654C41.5903 14.6151 41.3937 14.0694 41.2365 13.8746C41.0793 13.6797 40.6861 12.4325 41.2758 10.9125C41.2758 10.9125 41.9441 12.0428 41.9048 13.173C41.8654 14.3032 41.8262 14.0304 42.1013 14.9658C42.1406 14.9658 42.2979 15.1996 42.2585 15.2387Z" fill="#009FE3"/>
<path d="M40.4501 12.4716C40.4108 12.5105 40.2536 12.2767 40.0963 12.0428C39.9784 11.809 39.0743 10.8736 38.9563 10.6788C38.8384 10.4839 37.8163 9.27574 38.6025 7.44398C38.6025 7.44398 38.6812 7.40496 38.6812 7.83369C38.6812 8.26243 39.0743 9.19778 39.3887 9.62651C39.7032 10.0162 40.0177 10.6788 40.057 11.3803C40.057 11.3803 40.0963 11.4972 40.1356 11.5362C40.175 11.5752 40.175 11.4192 40.175 11.4192C40.175 11.4192 40.1356 10.7957 40.1356 10.328C40.1356 9.89933 40.3322 9.15884 40.7646 8.7301C40.7646 8.7301 40.9611 8.53525 41.0791 8.26243C41.0791 8.26243 41.1577 8.10651 41.2756 7.98961C41.2756 7.98961 41.3542 9.23672 40.9219 10.367C40.4894 11.4972 40.3715 11.6921 40.4108 12.3157C40.4501 12.3157 40.4501 12.4716 40.4501 12.4716Z" fill="#009FE3"/>
<path d="M39.7429 9.11998C39.7035 9.11998 39.6643 8.96406 39.6643 8.84717C39.6249 8.73027 39.507 8.02872 39.4284 7.91182C39.3497 7.7559 39.0353 7.09337 38.996 6.27492C38.9566 5.45647 39.3497 4.3652 40.1753 3.50781C40.1753 3.50781 40.136 3.78063 39.9394 4.32626C39.7429 4.91083 39.8608 5.41753 39.8608 5.53443C39.9001 5.61239 39.9394 6.27492 39.9394 6.58667C39.9394 6.82055 39.8607 7.67794 39.8215 7.83386C39.8215 7.83386 39.7821 7.95076 39.8608 7.95076C39.9394 7.95076 39.9394 7.87288 39.9394 7.87288C39.9394 7.87288 39.9787 7.21027 40.4898 6.62569C41.0008 6.04104 41.8656 5.65133 42.0228 5.37851C42.0228 5.37851 41.9442 6.31386 40.9222 7.40512C39.9787 8.37949 40.2539 7.87288 39.9787 8.69133C39.9787 8.69133 39.8608 9.00308 39.8608 9.04202C39.7821 9.11998 39.7429 9.11998 39.7429 9.11998Z" fill="#009FE3"/>
<path d="M40.2934 5.92411C40.2934 5.92411 40.254 5.80713 40.4506 5.49538C40.6079 5.22256 40.4506 4.67693 40.6472 3.93644C40.8437 3.19595 41.2761 1.90982 42.7699 1.13031C42.7699 1.13031 42.6127 1.28623 42.5341 1.36419C42.4554 1.48109 42.0623 2.26052 41.9444 2.76721C41.8264 3.31284 41.3154 4.20925 41.1189 4.40411C40.9223 4.59897 41.0009 4.63799 41.0009 4.63799C41.0009 4.63799 41.0795 4.59897 41.1975 4.48207C41.2761 4.32615 41.7872 3.78052 42.3375 3.66362C42.8879 3.54672 43.7526 3.2739 43.8312 3.23488C43.8312 3.23488 42.8879 4.20925 42.023 4.67693C41.1582 5.18362 41.0403 5.0277 40.5292 5.69023C40.5292 5.69023 40.3326 5.92411 40.2934 5.92411Z" fill="#009FE3"/>
<path d="M42.3765 3.07917C42.3765 3.07917 42.3765 3.00121 42.5337 2.84529C42.691 2.68945 42.8482 2.26072 43.1234 1.83198C43.3985 1.40333 44.0275 0.312064 45.6785 0.078186C45.6785 0.078186 45.1675 0.428962 45.0889 0.54586C45.0103 0.662839 44.5386 1.28635 44.3026 1.52023C44.0668 1.75402 43.4771 2.18276 43.2807 2.29966C43.2807 2.29966 43.1627 2.37762 43.202 2.41664C43.2413 2.45558 43.3199 2.37762 43.3199 2.37762C43.3199 2.37762 43.9096 1.94896 44.5778 1.90994C45.2855 1.871 45.993 1.90994 46.111 1.94896C46.111 1.94896 45.482 2.37762 43.9096 2.65043C42.3765 2.92325 42.6516 2.92325 42.4158 3.07917C42.4944 3.07917 42.4158 3.11811 42.3765 3.07917Z" fill="#009FE3"/>
<path d="M45.1278 1.28601C45.1278 1.28601 45.1672 1.20805 45.403 1.13009C45.6389 1.05213 45.6389 0.818332 46.3858 0.428536C47.1326 0.0388215 47.9188 -0.156036 48.7444 0.19474C48.7444 0.19474 48.3906 0.233678 48.3512 0.272699C48.312 0.311638 47.7223 0.428536 47.5651 0.545515C47.4079 0.623474 46.5823 1.01319 46.2285 1.05213C45.8747 1.13009 46.0713 1.13009 46.0713 1.13009C46.0713 1.13009 46.1499 1.16911 46.2285 1.16911C46.3072 1.16911 47.054 1.09115 47.5257 1.24699C47.9975 1.4029 47.9975 1.48086 48.194 1.55882C48.3906 1.63678 48.6264 1.67572 48.6657 1.75368C48.6657 1.75368 48.194 1.79262 47.8795 1.79262C47.6043 1.79262 46.8182 1.71474 46.4644 1.55882C46.1106 1.4029 45.6781 1.32494 45.5209 1.36396C45.3637 1.32494 45.2064 1.32494 45.1278 1.28601Z" fill="#009FE3"/>
<path d="M48.1945 0.935363C48.1945 0.935363 48.2337 0.896424 48.4303 0.857404C48.6268 0.818465 48.7055 0.701567 49.2165 0.584587C49.7275 0.467689 50.5137 0.38973 51.2213 0.857404C51.2213 0.857404 50.7889 0.857404 50.671 0.857404C50.5924 0.857404 49.7275 1.01332 49.531 1.01332C49.3344 1.01332 48.9414 0.935363 48.902 0.974302C48.8627 1.05226 49.2558 1.13022 49.3344 1.13022C49.413 1.16924 49.6882 1.16924 50.042 1.51994C50.3958 1.87071 50.671 2.06557 50.7102 2.10459C50.7102 2.10459 49.6489 1.87071 49.3737 1.71487C49.0986 1.55896 48.6268 1.09128 48.5482 1.09128C48.5089 1.01332 48.1945 0.935363 48.1945 0.935363Z" fill="#009FE3"/>
<path d="M50.7102 1.3641C50.7102 1.3641 51.3784 1.32517 51.8895 1.63692C52.4005 1.94868 52.7936 2.33847 52.8329 2.61129C52.8329 2.61129 52.5577 2.37741 52.3612 2.33847C52.1647 2.29945 51.6536 1.9877 51.5357 1.94868C51.4571 1.8708 50.8281 1.44206 50.7102 1.3641Z" fill="#009FE3"/>
<path d="M53.8944 16.7976C53.8944 16.7976 53.9731 16.7196 54.3269 16.4079C54.6413 16.135 54.7199 15.7063 55.113 15.0827C55.4668 14.4591 55.7813 14.0305 56.4889 13.3679C56.4889 13.3679 56.371 13.8356 56.3317 13.9915C56.3317 14.1474 56.2137 14.9658 55.7813 15.4724C55.3882 15.9402 55.3489 16.0571 54.8772 16.3688C54.8772 16.3688 54.6807 16.4858 54.7199 16.5248C54.7199 16.5637 55.0344 16.5248 55.0344 16.5248C55.0344 16.5248 55.3882 16.4079 55.5062 16.3299C55.6241 16.2519 56.0958 16.0181 56.2923 15.9402C56.4889 15.8622 56.6462 15.7843 57.0786 15.6674C57.511 15.5504 59.0834 15.1607 59.673 14.1474C59.673 14.1474 59.4765 14.7319 59.2799 15.0048C59.0441 15.2776 57.7861 16.9535 55.9779 16.9145C55.9779 16.9145 55.2703 16.8755 54.9165 16.7976C54.5627 16.7196 54.4055 16.7196 54.3661 16.7586C54.2875 16.7976 53.9731 16.8365 53.8944 16.7976Z" fill="#009FE3"/>
<path d="M57.9036 10.7957C57.9036 10.7957 57.2353 11.848 57.0781 13.329C56.9208 14.81 57.1959 14.3813 56.9208 15.0438C56.9208 15.0438 56.8422 15.1997 56.8815 15.2387C56.9208 15.2387 57.0387 15.1607 57.5105 14.8879C57.9822 14.6151 58.4539 14.6931 59.476 13.7187C60.4981 12.7444 60.6946 10.8347 60.7339 10.6788C60.7339 10.6788 60.5767 10.8347 60.4981 11.0685C60.4194 11.3413 60.2621 11.5362 60.2229 11.5752C60.1835 11.6141 59.0829 12.8223 58.9649 12.9002C58.847 13.0172 58.1787 13.7967 58.0608 14.0305C57.9036 14.2643 57.5105 14.654 57.4318 14.6151C57.4318 14.6151 57.4318 14.5371 57.4711 14.4592C57.5105 14.3813 57.825 13.9915 57.9428 13.5238C58.0608 13.0562 58.1001 12.7444 58.1001 12.4716C58.1001 12.1598 57.9036 11.0295 57.9036 10.7957Z" fill="#009FE3"/>
<path d="M58.8077 12.2378C58.8077 12.2378 58.729 12.0819 58.8077 11.965C58.847 11.8871 58.8862 11.3804 58.6897 10.9517C58.4932 10.523 58.0607 9.39271 58.1 8.61328C58.1394 7.83377 58.218 7.71688 58.218 7.71688C58.218 7.71688 58.4146 8.34047 58.4932 8.45737C58.5718 8.57426 59.2007 9.70455 59.1615 10.3281C59.1221 10.9517 59.0829 11.1465 59.1221 11.1465C59.1615 11.1465 59.2401 11.0686 59.2401 10.9907C59.2401 10.9127 59.3579 10.484 59.5545 9.97737C59.7511 9.47067 60.5767 8.37941 60.7731 7.63892C60.7731 7.63892 61.0483 8.92504 60.3014 10.1332C59.5938 11.3414 59.5152 11.0686 59.2007 11.6143C58.8863 12.1988 58.847 12.2378 58.8077 12.2378Z" fill="#009FE3"/>
<path d="M59.4765 8.84708C59.4372 8.84708 59.4372 8.34047 59.3192 8.18455C59.2014 8.02863 58.0613 6.70357 57.8254 5.41745C57.8254 5.41745 58.5331 6.119 58.6509 6.19688C58.7689 6.27484 59.2406 6.74251 59.3978 7.13231C59.5551 7.52202 59.5158 7.8728 59.5551 7.91174C59.5944 7.91174 59.5944 7.44406 59.5944 7.44406C59.5944 7.44406 59.5944 6.54765 59.673 6.119C59.7516 5.69026 59.9482 4.98871 59.8696 4.599C59.8696 4.599 60.302 5.26153 60.2627 6.19688C60.2234 7.13231 59.8303 7.8728 59.791 7.9897C59.7517 8.10659 59.5944 8.57427 59.5944 8.65223C59.5944 8.73019 59.4765 8.84708 59.4765 8.84708Z" fill="#009FE3"/>
<path d="M58.1393 2.14349C58.1393 2.14349 59.5938 3.00096 59.3579 5.88497C59.3579 5.88497 59.3579 6.00195 59.2793 5.88497C59.2006 5.72913 58.8862 5.33933 58.729 5.26138C58.5717 5.1835 57.2745 4.40399 56.7241 3.19582C56.7241 3.19582 56.8027 3.1568 56.9207 3.27378C57.0386 3.39068 57.4318 3.58554 57.5104 3.62456C57.589 3.6635 58.0214 3.78039 58.3751 4.13117C58.729 4.48195 58.8469 4.75476 58.9256 4.98864C58.9256 4.98864 59.0042 5.06652 58.9648 4.83272C58.8862 4.63786 58.8862 4.48195 58.729 4.20913C58.5717 3.93631 58.4145 3.46864 58.3751 3.11786C58.3751 2.80611 58.2965 2.33835 58.1393 2.14349Z" fill="#009FE3"/>
<path d="M57.9036 3.15683C57.9036 3.15683 57.9429 2.96197 57.7857 2.68915C57.6284 2.41634 57.7463 2.10458 57.314 1.40303C57.078 1.01331 56.2133 0.701477 56.2133 0.701477C56.2133 0.701477 56.4491 1.05225 56.6063 1.24711C56.7636 1.44205 56.8029 1.59789 56.8815 1.67584C56.9208 1.7538 57.2353 2.06556 57.3532 2.22148C57.3926 2.26042 57.4319 2.33838 57.4319 2.3774C57.4319 2.41634 57.314 2.33838 57.2746 2.29944C57.2353 2.26042 56.7243 1.8707 56.3705 1.79274C56.0167 1.71487 55.3877 1.67584 55.2305 1.59789C55.2305 1.59789 55.9774 2.26042 56.8029 2.49429C57.6284 2.72817 57.9036 3.15683 57.9036 3.15683Z" fill="#009FE3"/>
<path d="M56.1741 1.40291C56.1741 1.40291 55.4272 0.389526 54.0514 0.389526C54.0514 0.389526 54.13 0.467485 54.2873 0.506505C54.4445 0.545444 54.7197 0.818261 54.8376 0.89622C54.9949 0.974179 55.3093 1.20798 56.1741 1.40291Z" fill="#009FE3"/>
<path d="M14.7413 0V12.5885C14.7413 13.6798 14.5448 14.6541 14.1909 15.5115C13.8371 16.3689 13.3262 17.0705 12.6579 17.6161C11.9896 18.2007 11.2427 18.6294 10.3386 18.9022C9.43444 19.175 8.45172 19.331 7.39031 19.331C6.32894 19.331 5.34618 19.175 4.44205 18.9022C3.53792 18.6294 2.7124 18.1617 2.08344 17.6161C1.41517 17.0314 0.90414 16.33 0.550351 15.5115C0.19656 14.6541 0 13.6798 0 12.5885V0H3.97032V12.5885C3.97032 13.8356 4.28481 14.732 4.87446 15.3167C5.46412 15.9012 6.32894 16.1741 7.39031 16.1741C8.45172 16.1741 9.31649 15.9012 9.90617 15.3167C10.4958 14.732 10.8103 13.8356 10.8103 12.5885V0H14.7413Z" fill="#009FE3"/>
<path d="M33.6101 19.0581H29.6398L21.935 6.50858V19.0581H17.9647V0H21.935L29.6791 12.5495V0H33.6101V19.0581Z" fill="#009FE3"/>
<path d="M2.86977 31.3738C2.04425 31.3738 1.37598 31.101 0.825629 30.5943C0.3146 30.0877 0.0394287 29.3861 0.0394287 28.5287V28.3728C0.0394287 27.7882 0.157366 27.2815 0.353917 26.8138C0.589778 26.3462 0.904261 25.9954 1.29736 25.7615C1.69046 25.5277 2.16219 25.4108 2.67321 25.4108C3.45942 25.4108 4.04907 25.6446 4.52079 26.1513C4.9532 26.6579 5.18906 27.3595 5.18906 28.2559V28.8795H1.57252C1.61183 29.2692 1.76908 29.542 2.00494 29.7758C2.2408 30.0097 2.55528 30.1266 2.94838 30.1266C3.53803 30.1266 3.97044 29.9317 4.32424 29.503L5.07114 30.3605C4.83528 30.6722 4.52079 30.945 4.167 31.1399C3.73459 31.2958 3.34149 31.3738 2.86977 31.3738ZM2.67321 26.6579C2.35873 26.6579 2.12287 26.7748 1.92632 26.9698C1.72978 27.1646 1.61183 27.4764 1.57252 27.8661H3.69528V27.7492C3.69528 27.3984 3.61666 27.1646 3.4201 26.9698C3.26286 26.7359 2.98769 26.6579 2.67321 26.6579Z" fill="#009FE3"/>
<path d="M7.50818 25.5277L7.5475 26.1903C7.94059 25.6836 8.49094 25.4108 9.15923 25.4108C9.74883 25.4108 10.2206 25.6057 10.4957 25.9565C10.7709 26.3072 10.9282 26.8528 10.9282 27.5543V31.2569H9.39506V27.5933C9.39506 27.2815 9.31645 27.0476 9.19849 26.8918C9.08062 26.7359 8.88406 26.6579 8.56955 26.6579C8.13716 26.6579 7.82266 26.8528 7.62612 27.2036V31.2569H6.09302V25.5277H7.50818Z" fill="#009FE3"/>
<path d="M14.3093 29.3863L15.3706 25.5279H16.9431L15.0169 31.257H13.5624L11.6362 25.5279H13.2086L14.3093 29.3863Z" fill="#009FE3"/>
<path d="M17.6503 24.0468C17.6503 23.813 17.7289 23.6181 17.8862 23.4622C18.0434 23.3063 18.24 23.2283 18.5151 23.2283C18.7903 23.2283 18.9868 23.3063 19.1441 23.4622C19.3013 23.6181 19.3799 23.813 19.3799 24.0468C19.3799 24.2807 19.3013 24.4755 19.1441 24.6314C18.9868 24.7874 18.7903 24.8652 18.5151 24.8652C18.24 24.8652 18.0434 24.7874 17.8862 24.6314C17.7289 24.4755 17.6503 24.2807 17.6503 24.0468ZM19.2619 31.2569H17.7289V25.5278H19.2619V31.2569Z" fill="#009FE3"/>
<path d="M23.7826 26.9697C23.5861 26.9307 23.3895 26.9307 23.2323 26.9307C22.6426 26.9307 22.2888 27.1256 22.0923 27.5153V31.2568H20.5592V25.5277H21.9743L22.0137 26.2292C22.3281 25.6836 22.7212 25.4497 23.2716 25.4497C23.4288 25.4497 23.5861 25.4887 23.7433 25.5277L23.7826 26.9697Z" fill="#009FE3"/>
<path d="M24.1364 28.3339C24.1364 27.7492 24.2543 27.2426 24.4508 26.8138C24.6474 26.3851 24.9619 26.0343 25.3943 25.7615C25.7874 25.5277 26.2591 25.4108 26.8094 25.4108C27.5563 25.4108 28.1852 25.6446 28.6963 26.1123C29.168 26.58 29.4432 27.2426 29.5218 28.061V28.4508C29.5218 29.3472 29.286 30.0486 28.7749 30.5553C28.2639 31.0619 27.6349 31.3348 26.8094 31.3348C25.9839 31.3348 25.3549 31.0619 24.8439 30.5553C24.3329 30.0486 24.097 29.3081 24.097 28.4117V28.3339H24.1364ZM25.6695 28.4508C25.6695 28.9964 25.7874 29.425 25.984 29.6979C26.1804 29.9707 26.495 30.1266 26.8487 30.1266C27.2025 30.1266 27.517 29.9707 27.7136 29.6979C27.9101 29.425 28.028 28.9574 28.028 28.3339C28.028 27.7882 27.9101 27.3984 27.7136 27.0867C27.4777 26.8139 27.2025 26.6579 26.8094 26.6579C26.4556 26.6579 26.1412 26.8139 25.9446 27.0867C25.7481 27.3984 25.6695 27.8272 25.6695 28.4508Z" fill="#009FE3"/>
<path d="M31.92 25.5277L31.9594 26.1903C32.3524 25.6836 32.9028 25.4108 33.571 25.4108C34.1607 25.4108 34.6325 25.6057 34.9076 25.9565C35.1828 26.3072 35.34 26.8528 35.34 27.5543V31.2569H33.807V27.5933C33.807 27.2815 33.7283 27.0476 33.6104 26.8918C33.4924 26.7359 33.2959 26.6579 32.9421 26.6579C32.5097 26.6579 32.1952 26.8528 31.9986 27.2036V31.2569H30.4656V25.5277H31.92Z" fill="#009FE3"/>
<path d="M38.0125 25.5277L38.0517 26.1513C38.4449 25.6446 38.9952 25.4108 39.6635 25.4108C40.4104 25.4108 40.8821 25.6836 41.1573 26.2682C41.5503 25.6836 42.14 25.4108 42.8476 25.4108C43.4766 25.4108 43.909 25.6057 44.2234 25.9565C44.5379 26.3072 44.6559 26.8528 44.6559 27.5933V31.2569H43.2014V27.5933C43.2014 27.2815 43.1228 27.0476 43.0049 26.8918C42.8869 26.7359 42.6511 26.6579 42.3366 26.6579C41.8648 26.6579 41.5503 26.8918 41.3931 27.3205V31.2569H39.8601V27.5933C39.8601 27.2426 39.7814 27.0087 39.6635 26.8528C39.5455 26.697 39.3097 26.619 38.9952 26.619C38.5628 26.619 38.2483 26.8139 38.0517 27.1646V31.2179H36.5187V25.5277H38.0125Z" fill="#009FE3"/>
<path d="M48.548 31.3738C47.7224 31.3738 47.0542 31.101 46.5038 30.5943C45.9928 30.0877 45.7177 29.3861 45.7177 28.5287V28.3728C45.7177 27.7882 45.8356 27.2815 46.0321 26.8138C46.268 26.3462 46.5824 25.9954 46.9755 25.7615C47.3687 25.5277 47.8404 25.4108 48.3514 25.4108C49.1376 25.4108 49.7272 25.6446 50.199 26.1513C50.6314 26.6579 50.8673 27.3595 50.8673 28.2559V28.8795H47.2507C47.2901 29.2692 47.4473 29.542 47.6831 29.7758C47.919 30.0097 48.2334 30.1266 48.6266 30.1266C49.2162 30.1266 49.6486 29.9317 50.0024 29.503L50.7493 30.3605C50.5135 30.6722 50.199 30.945 49.8452 31.1399C49.4521 31.2958 49.0197 31.3738 48.548 31.3738ZM48.3907 26.6579C48.0762 26.6579 47.8404 26.7748 47.6438 26.9698C47.4473 27.1646 47.3293 27.4764 47.29 27.8661H49.4128V27.7492C49.4128 27.3984 49.3341 27.1646 49.1376 26.9698C48.9411 26.7359 48.7052 26.6579 48.3907 26.6579Z" fill="#009FE3"/>
<path d="M53.226 25.5277L53.2652 26.1903C53.6584 25.6836 54.2087 25.4108 54.877 25.4108C55.4667 25.4108 55.9383 25.6057 56.2135 25.9565C56.4887 26.3072 56.646 26.8528 56.646 27.5543V31.2569H55.1128V27.5933C55.1128 27.2815 55.0342 27.0476 54.9163 26.8918C54.7984 26.7359 54.5625 26.6579 54.2087 26.6579C53.7763 26.6579 53.4618 26.8528 53.2652 27.2036V31.2569H51.7322V25.5277H53.226Z" fill="#009FE3"/>
<path d="M59.7123 24.1247V25.5278H60.695V26.658H59.7123V29.5031C59.7123 29.6979 59.7516 29.8538 59.8302 29.9707C59.9088 30.0487 60.0661 30.1267 60.3019 30.1267C60.4591 30.1267 60.6164 30.1267 60.7343 30.0877V31.2569C60.4198 31.3348 60.1447 31.4128 59.8302 31.4128C58.7688 31.4128 58.2185 30.8672 58.2185 29.7759V26.658H57.3536V25.5278H58.1791V24.1247H59.7123Z" fill="#009FE3"/>
<path d="M5.34637 38.7788C5.34637 39.6752 5.14982 40.3768 4.75672 40.8834C4.36362 41.3901 3.81329 41.6629 3.14501 41.6629C2.55537 41.6629 2.12296 41.468 1.76917 41.0393V43.7285H0.236084V35.8558H1.65125L1.69056 36.4014C2.04434 35.9727 2.55537 35.7389 3.14501 35.7389C3.85259 35.7389 4.40294 36.0117 4.75672 36.5183C5.14982 37.025 5.34637 37.7655 5.34637 38.7009V38.7788ZM3.81329 38.6619C3.81329 38.1163 3.73466 37.7266 3.53812 37.4147C3.34156 37.1419 3.0664 36.986 2.71262 36.986C2.2409 36.986 1.92641 37.1809 1.72987 37.5316V39.8701C1.92641 40.2598 2.2409 40.4547 2.71262 40.4547C3.4595 40.4547 3.81329 39.8701 3.81329 38.6619Z" fill="#009FE3"/>
<path d="M9.55218 37.2978C9.35562 37.2589 9.15906 37.2589 9.00184 37.2589C8.41216 37.2589 8.05837 37.4537 7.86183 37.8434V41.5849H6.32874V35.8559H7.7439L7.78321 36.5573C8.0977 36.0117 8.49077 35.7779 9.04111 35.7779C9.1984 35.7779 9.35562 35.8168 9.51284 35.8559L9.55218 37.2978Z" fill="#009FE3"/>
<path d="M9.90653 38.6619C9.90653 38.0773 10.0245 37.5706 10.221 37.1419C10.4569 36.7132 10.732 36.3625 11.1644 36.0897C11.5575 35.8558 12.0293 35.7389 12.5796 35.7389C13.3265 35.7389 13.9555 35.9727 14.4665 36.4404C14.9382 36.9081 15.2134 37.5706 15.292 38.3891V38.7788C15.292 39.6752 15.0561 40.3767 14.5451 40.8834C14.0734 41.429 13.4051 41.6629 12.5796 41.6629C11.7541 41.6629 11.1252 41.3901 10.6141 40.8834C10.1424 40.3378 9.86719 39.6362 9.86719 38.7399V38.6619H9.90653ZM11.4003 38.7788C11.4003 39.3244 11.5182 39.7532 11.7148 40.026C11.9113 40.2988 12.2258 40.4547 12.5796 40.4547C12.9334 40.4547 13.2479 40.2988 13.4445 40.026C13.6409 39.7532 13.7589 39.2855 13.7589 38.6619C13.7589 38.1163 13.6409 37.7266 13.4445 37.4147C13.2479 37.103 12.9334 36.986 12.5796 36.986C12.2258 36.986 11.9113 37.1419 11.7148 37.4147C11.5182 37.6875 11.4003 38.1552 11.4003 38.7788Z" fill="#009FE3"/>
<path d="M16.0388 38.6619C16.0388 37.7654 16.2354 37.064 16.6678 36.5183C17.1002 35.9727 17.6505 35.6999 18.3581 35.6999C18.9871 35.6999 19.4588 35.9337 19.8126 36.3624L19.8912 35.8168H21.267V41.3511C21.267 41.8577 21.1492 42.2864 20.9133 42.6761C20.6774 43.0659 20.3629 43.3387 19.9698 43.5336C19.5768 43.7285 19.0657 43.8063 18.5153 43.8063C18.083 43.8063 17.6898 43.7285 17.2967 43.5726C16.9037 43.4166 16.5892 43.1828 16.3926 42.91L17.0609 41.9746C17.454 42.4033 17.8864 42.5982 18.4367 42.5982C18.8299 42.5982 19.1443 42.4813 19.3802 42.2864C19.616 42.0525 19.734 41.7797 19.734 41.3511V41.0783C19.3802 41.468 18.9085 41.6628 18.3581 41.6628C17.6898 41.6628 17.1395 41.39 16.7071 40.8444C16.2746 40.2988 16.0782 39.5972 16.0782 38.7009V38.6619H16.0388ZM17.5719 38.7788C17.5719 39.2854 17.6898 39.7142 17.8864 39.987C18.083 40.2988 18.3581 40.4156 18.7512 40.4156C19.2229 40.4156 19.5374 40.2208 19.734 39.909V37.4926C19.5374 37.1419 19.2229 36.986 18.7512 36.986C18.3974 36.986 18.083 37.1419 17.8864 37.4537C17.6898 37.7265 17.5719 38.1942 17.5719 38.7788Z" fill="#009FE3"/>
<path d="M25.6696 37.2978C25.473 37.2589 25.2765 37.2589 25.1193 37.2589C24.5296 37.2589 24.1759 37.4537 23.9793 37.8434V41.5849H22.4462V35.8559H23.8614L23.9007 36.5573C24.2151 36.0117 24.6083 35.7779 25.1586 35.7779C25.3158 35.7779 25.4731 35.8168 25.6303 35.8559L25.6696 37.2978Z" fill="#009FE3"/>
<path d="M29.561 41.5849C29.4824 41.429 29.443 41.2731 29.4037 41.0782C29.0499 41.507 28.5782 41.7018 27.9886 41.7018C27.4382 41.7018 26.9665 41.5459 26.6127 41.1951C26.2589 40.8834 26.0624 40.4547 26.0624 39.948C26.0624 39.3244 26.2982 38.8568 26.7306 38.5449C27.1631 38.2332 27.8313 38.0383 28.6569 38.0383H29.3644V37.7265C29.3644 37.4538 29.2858 37.2588 29.1678 37.103C29.0499 36.9471 28.8141 36.8691 28.5389 36.8691C28.303 36.8691 28.0672 36.9471 27.9492 37.064C27.792 37.1809 27.7134 37.3758 27.7134 37.5707H26.1803C26.1803 37.2199 26.2982 36.9471 26.4948 36.6353C26.6913 36.3625 26.9665 36.1286 27.3596 35.9727C27.7134 35.8169 28.1458 35.7389 28.6175 35.7389C29.3251 35.7389 29.8754 35.9337 30.2685 36.2845C30.6616 36.6353 30.8975 37.1419 30.8975 37.7655V40.2598C30.8975 40.8054 30.9761 41.2342 31.1334 41.507V41.5849H29.561ZM28.3423 40.5326C28.5782 40.5326 28.7747 40.4937 28.9713 40.3767C29.1678 40.2598 29.2858 40.1429 29.4037 39.987V39.0127H28.8533C28.1065 39.0127 27.674 39.2855 27.6347 39.7921V39.8701C27.6347 40.0649 27.7134 40.2209 27.8313 40.3378C27.9099 40.4547 28.1065 40.5326 28.3423 40.5326Z" fill="#009FE3"/>
<path d="M33.5316 35.8558L33.571 36.4794C33.964 35.9727 34.5144 35.7389 35.1826 35.7389C35.9295 35.7389 36.4013 36.0117 36.6764 36.5963C37.0696 36.0117 37.6593 35.7389 38.3668 35.7389C38.9958 35.7389 39.4281 35.9337 39.7427 36.2845C40.0572 36.6353 40.175 37.1809 40.175 37.9214V41.5849H38.642V37.9214C38.642 37.6096 38.5634 37.3758 38.4454 37.2199C38.3275 37.064 38.0916 36.986 37.7771 36.986C37.3054 36.986 36.991 37.2199 36.8337 37.6486V41.5849H35.3006V37.9214C35.3006 37.5707 35.222 37.3368 35.104 37.1809C34.9861 37.025 34.7503 36.9471 34.4358 36.9471C34.0034 36.9471 33.6889 37.1419 33.4924 37.4927V41.5459H31.9592V35.8558H33.5316Z" fill="#009FE3"/>
<path d="M42.8874 35.8558L42.9268 36.4794C43.3199 35.9727 43.8702 35.7389 44.5385 35.7389C45.2854 35.7389 45.7571 36.0117 46.0322 36.5963C46.4254 36.0117 47.0151 35.7389 47.7226 35.7389C48.3516 35.7389 48.784 35.9337 49.0985 36.2845C49.413 36.6353 49.5308 37.1809 49.5308 37.9214V41.5849H47.9978V37.9214C47.9978 37.6096 47.9192 37.3758 47.8012 37.2199C47.6833 37.064 47.4474 36.986 47.1329 36.986C46.6613 36.986 46.3468 37.2199 46.1895 37.6486V41.5849H44.7744V37.9214C44.7744 37.5707 44.6958 37.3368 44.5778 37.1809C44.4598 37.025 44.224 36.9471 43.9095 36.9471C43.4771 36.9471 43.1626 37.1419 42.966 37.4927V41.5459H41.433V35.8558H42.8874Z" fill="#009FE3"/>
<path d="M53.4225 41.7018C52.597 41.7018 51.9287 41.429 51.3784 40.9223C50.8673 40.4157 50.5922 39.7142 50.5922 38.8568V38.7009C50.5922 38.1163 50.7101 37.6096 50.9067 37.1419C51.1425 36.6742 51.457 36.3235 51.8501 36.0897C52.2433 35.8558 52.715 35.7389 53.226 35.7389C54.0122 35.7389 54.6018 35.9727 55.0736 36.4794C55.506 36.986 55.7418 37.6875 55.7418 38.584V39.2075H52.1253C52.1647 39.5973 52.3219 39.8701 52.5577 40.1039C52.7936 40.3378 53.108 40.4547 53.5012 40.4547C54.0908 40.4547 54.5232 40.2598 54.877 39.8311L55.6239 40.6885C55.3881 41.0003 55.0736 41.2731 54.7198 41.468C54.3267 41.5849 53.8943 41.7018 53.4225 41.7018ZM53.2653 36.986C52.9508 36.986 52.715 37.103 52.5184 37.2978C52.3219 37.4927 52.2039 37.8044 52.1647 38.1942H54.2874V38.0773C54.2874 37.7265 54.2088 37.4927 54.0122 37.2978C53.8157 37.064 53.5798 36.986 53.2653 36.986Z" fill="#009FE3"/>
</svg>
